<svg width="80" height="82" viewBox="0 0 80 82" fill="none" xmlns="http://www.w3.org/2000/svg">
<path fill-rule="evenodd" clip-rule="evenodd" d="M39.5599 36.834C42.2349 36.834 44.3955 38.9946 44.3955 41.6182C44.3955 44.2933 42.2349 46.4025 39.5599 46.4025C36.9363 46.4025 34.7756 44.2933 34.7756 41.6182C34.7756 38.9946 36.9363 36.834 39.5599 36.834ZM39.5599 39.509C40.7431 39.509 41.7205 40.435 41.7205 41.6182C41.7205 42.8014 40.7431 43.7788 39.5599 43.7788C38.4281 43.7788 37.4507 42.8014 37.4507 41.6182C37.4507 40.435 38.4281 39.509 39.5599 39.509Z" fill="#FEFEFE"/>
<path d="M50.6718 31.638C50.6204 31.6895 50.6204 31.7409 50.6204 31.7923C50.6204 31.8952 50.6718 31.9467 50.7233 32.0496C50.7747 32.0496 50.7747 32.0496 50.7747 32.101C50.8776 32.1524 51.0319 32.2553 51.1348 32.2553C51.1863 32.2553 51.2377 32.2553 51.2892 32.2553V32.2039C51.392 32.1524 51.392 32.0496 51.392 31.9467C51.3406 31.7923 51.2377 31.6895 51.1348 31.5351C51.0834 31.5351 51.0319 31.4837 51.0319 31.4322C50.8776 31.2265 50.8262 31.0207 50.8262 30.8149C50.8776 30.6091 50.9805 30.4548 51.1348 30.3005L51.1863 30.249C51.392 30.0947 51.5978 30.0433 51.855 30.0433C52.0608 30.0947 52.2666 30.1976 52.4724 30.3519C52.6267 30.5063 52.7296 30.712 52.781 30.9178C52.8325 31.1236 52.8325 31.3293 52.7296 31.5351L52.2666 31.2779C52.2666 31.2265 52.2666 31.1236 52.2666 31.0721C52.2151 30.9692 52.1637 30.8664 52.0608 30.7635C51.9579 30.6606 51.855 30.6606 51.8036 30.6091C51.7007 30.6091 51.5978 30.6606 51.5464 30.712C51.4949 30.712 51.4949 30.712 51.4949 30.7635C51.4435 30.7635 51.4435 30.8149 51.4435 30.8664C51.392 30.9692 51.4435 31.0207 51.4949 31.1236C51.5464 31.1236 51.5464 31.175 51.5464 31.175C51.7007 31.3293 51.855 31.5351 51.9065 31.7923C52.0094 32.0496 51.9579 32.3582 51.7007 32.6154H51.7521C51.7007 32.6154 51.7007 32.6154 51.7007 32.6154C51.4949 32.8212 51.2892 32.8727 51.0319 32.8212C50.8262 32.7698 50.569 32.6669 50.4146 32.5125C50.3632 32.4611 50.3632 32.4611 50.3117 32.4097C50.2088 32.3068 50.0545 32.101 50.0545 31.8438C50.0031 31.6895 50.0545 31.4837 50.2088 31.2779L50.6718 31.638ZM26.7507 30.9178C26.8021 30.9692 26.8535 31.0721 26.9564 31.1236C27.1108 31.3293 27.368 31.5351 27.5738 31.7409C27.9339 32.0496 28.3454 32.2553 28.6026 31.9467C28.8084 31.6895 28.8598 31.4837 28.757 31.2265C28.6026 30.8664 28.2425 30.5063 27.6252 29.9918L27.9853 29.5288C28.6541 30.0947 29.0656 30.5577 29.2714 30.9692C29.4772 31.4837 29.4257 31.8952 29.0656 32.3068C28.4997 32.9755 27.831 32.6669 27.2136 32.1524C26.9564 31.9467 26.7507 31.7409 26.5449 31.5351C26.4934 31.4837 26.3906 31.3808 26.3391 31.3293L26.7507 30.9178ZM29.8887 30.9692L28.4997 28.9115L28.9113 28.6543L31.0205 29.1173L30.2488 27.8312L30.7118 27.5225L31.895 29.3745L32.0493 29.6317L31.6378 29.8889L29.4772 29.3745L30.3517 30.6606L29.8887 30.9692ZM31.7921 26.9052L32.821 28.963L32.3065 29.2202L31.2777 27.2139L31.7921 26.9052ZM32.7695 26.2365L34.0556 27.6769L34.1585 25.8249L34.7244 25.8763L34.3643 28.6028L32.358 26.648L32.7695 26.2365ZM37.2451 25.5677C37.1422 25.6191 37.0393 25.6191 36.885 25.6191C36.5249 25.722 36.0105 25.7735 36.0105 25.9278C36.0105 26.0821 36.0105 26.185 36.0105 26.3393L37.1422 26.0821L37.2451 26.648L36.1648 26.8538C36.1648 26.9567 36.2162 27.0595 36.2677 27.1624L36.3191 27.3168C36.3191 27.3168 36.422 27.3168 36.5763 27.2653C36.885 27.2653 37.1937 27.1624 37.4509 27.0595L37.6052 27.6254C37.348 27.6769 36.9879 27.7798 36.6792 27.8312C36.2162 27.8826 35.8561 27.8312 35.7533 27.5225L35.7018 27.3682C35.496 26.8023 35.3931 26.4937 35.4446 25.9278C35.496 25.259 36.2162 25.1561 36.8336 25.0533C36.9365 25.0533 37.0393 25.0533 37.0908 25.0018L37.2451 25.5677ZM40.486 27.574C40.3317 27.3168 40.1774 27.111 40.0231 26.9567C39.9202 26.8023 39.8173 26.6994 39.7144 26.648C39.5601 26.648 39.3028 26.648 39.0971 26.648H39.0456V27.4197H38.4798V25.2076V24.9504L38.737 24.8989C38.8399 24.8989 38.9427 24.8475 39.0456 24.8475C39.4572 24.796 39.8173 24.8475 40.1259 24.8989C40.486 25.0018 40.7433 25.259 40.8461 25.6191C40.8461 25.6706 40.8461 25.6706 40.8461 25.722C40.8461 25.722 40.8461 25.722 40.8461 25.7735C40.8461 26.0307 40.6918 26.2365 40.486 26.3908C40.486 26.3908 40.4346 26.4422 40.3832 26.4937C40.4346 26.4937 40.4346 26.5451 40.486 26.5966C40.6404 26.7509 40.7947 27.0081 40.949 27.3168L40.486 27.574ZM39.0456 25.4134V26.0821H39.1485C39.3543 26.0821 39.5601 26.0821 39.8173 26.0821C39.9202 26.0821 40.0745 26.0307 40.1774 25.9278C40.2288 25.8763 40.2803 25.8249 40.2803 25.7735V25.722C40.2288 25.6191 40.1259 25.5162 39.9716 25.4648C39.7144 25.4134 39.4572 25.4134 39.1485 25.4134H39.0456ZM42.0808 27.0595C42.0808 27.111 42.1837 27.2139 42.2866 27.2653C42.338 27.3168 42.4409 27.3682 42.5438 27.3682C42.6467 27.3682 42.801 27.3682 42.9039 27.3168C42.9553 27.2653 43.0068 27.2139 43.0068 27.1624C43.0068 27.111 43.0068 27.111 43.0068 27.111C43.0582 27.0081 43.0068 26.9567 42.9553 26.9052C42.9553 26.8538 42.8524 26.8023 42.7496 26.8023H42.6981C42.3895 26.7509 42.1837 26.648 42.0293 26.4937C41.8236 26.3393 41.7207 26.0821 41.7721 25.8249C41.7721 25.6191 41.9265 25.4134 42.1322 25.259C42.338 25.1561 42.5952 25.1047 42.801 25.1047C43.0582 25.1561 43.2125 25.259 43.3669 25.3619C43.5212 25.5162 43.5726 25.6191 43.6755 25.7735L43.1611 26.0307C43.1097 25.9278 43.0582 25.8763 43.0068 25.7735C42.9039 25.722 42.8524 25.6706 42.7496 25.6706C42.6467 25.6706 42.5438 25.722 42.4409 25.7735C42.3895 25.8249 42.338 25.8763 42.338 25.8763C42.338 25.9792 42.338 26.0307 42.3895 26.0821C42.4923 26.1336 42.5952 26.185 42.7496 26.2365C42.801 26.2365 42.8524 26.2365 42.9039 26.2365C43.0582 26.2879 43.264 26.3908 43.4183 26.4937C43.5212 26.648 43.6241 26.8538 43.6241 27.111C43.5726 27.1624 43.5726 27.2139 43.5726 27.2653C43.5212 27.5225 43.3669 27.6769 43.1611 27.7798C42.9553 27.9341 42.6981 27.9855 42.4923 27.9341C42.2866 27.9341 42.1322 27.8312 41.9779 27.7283C41.7721 27.6254 41.6178 27.4711 41.5664 27.3168L42.0808 27.0595ZM45.1674 25.9278L44.4472 28.1399L43.8813 27.9855L44.653 25.722L45.1674 25.9278ZM45.6304 28.5514L46.5049 26.9567L45.8876 26.648L46.1963 26.1336L47.9453 27.0595L47.6881 27.574L47.0194 27.2139L46.1448 28.8086L45.6304 28.5514ZM48.5627 28.7572C48.7684 28.9115 48.9742 29.0144 49.1285 29.1687C49.2829 29.2716 49.4372 29.4259 49.5915 29.5803C49.8487 29.2202 49.9516 28.8601 49.643 28.6543C49.18 28.3456 48.8713 28.5 48.5627 28.7572ZM48.7684 29.6317C48.6141 29.4774 48.4083 29.3231 48.2026 29.2202C48.1511 29.2716 48.0997 29.3231 48.0482 29.3745C47.9453 29.5288 47.8939 29.6317 47.791 29.7346L47.328 29.3745C47.4309 29.2716 47.5338 29.1687 47.5852 29.0658C48.1511 28.2942 48.7684 27.3682 49.9516 28.1399C50.6718 28.6543 50.4661 29.2716 50.0545 29.8889C49.9002 30.1462 49.6944 30.3519 49.5401 30.6091C49.4372 30.712 49.3858 30.7635 49.3343 30.8664L48.8713 30.5063C48.9742 30.4034 49.0256 30.3005 49.0771 30.249C49.1285 30.1462 49.18 30.0947 49.2314 30.0433C49.1285 29.8889 48.9742 29.7346 48.7684 29.6317Z" fill="#FEFEFE"/>
<path d="M27.8822 50.0029L28.7053 50.9804L28.9111 51.2376L28.7053 51.3919C28.551 51.4948 28.4481 51.5977 28.3452 51.7006C27.9851 52.0092 27.625 52.3179 27.2135 52.4722C26.9563 52.5237 26.7505 52.5237 26.4933 52.4208C26.2875 52.3693 26.0817 52.1636 25.9274 52.0092C25.7731 51.8034 25.6702 51.5462 25.6702 51.3405C25.6187 51.0318 25.6187 50.7746 25.6702 50.5688L26.2361 50.7746C26.1846 50.8775 26.1846 51.0318 26.1846 51.2376C26.2361 51.3919 26.2875 51.5462 26.3389 51.6491C26.4418 51.752 26.5962 51.8549 26.699 51.9063C26.8019 51.9578 26.9048 51.9578 27.0077 51.9063C27.3164 51.8034 27.6765 51.5462 27.9851 51.2376C27.9851 51.2376 28.0366 51.1861 28.088 51.1347L27.4192 50.363L27.8822 50.0029Z" fill="#FEFEFE"/>
<path d="M28.4998 52.6268C28.4998 52.5753 28.5513 52.5753 28.6027 52.5239C28.8599 52.3181 29.1686 52.1638 29.4772 52.1638C29.8373 52.1123 30.146 52.2152 30.5061 52.5753C30.5061 52.5753 30.5576 52.6268 30.5576 52.6782C30.8662 53.0383 30.9177 53.347 30.8148 53.6556C30.7633 54.0672 30.4547 54.3759 30.1974 54.6331C29.9402 54.8388 29.6316 54.8903 29.2715 54.8903C28.9628 54.8903 28.6027 54.736 28.3969 54.4787C28.3455 54.4787 28.3455 54.4787 28.3455 54.4273C28.1397 54.1701 27.9854 53.8614 28.0368 53.5013C28.0368 53.1927 28.1912 52.884 28.4998 52.6268ZM28.9628 52.9869C28.9114 52.9869 28.9114 53.0383 28.8599 53.0383C28.7056 53.1927 28.6027 53.3984 28.6027 53.5528C28.6027 53.7071 28.6541 53.9129 28.8085 54.1186C28.9114 54.273 29.1171 54.3244 29.3229 54.3244C29.5287 54.3244 29.7345 54.273 29.8373 54.1701C30.0431 54.0157 30.2489 53.81 30.3003 53.5528C30.3003 53.3984 30.3003 53.2441 30.146 53.0383C30.0946 52.9869 30.0946 52.9869 30.0431 52.9354C29.8888 52.7811 29.683 52.6782 29.5287 52.7297C29.3229 52.7297 29.1171 52.8326 28.9628 52.9869Z" fill="#FEFEFE"/>
<path d="M32.6664 54.7871C32.615 54.7356 32.5121 54.5813 32.4092 54.4784C32.3578 54.3755 32.2549 54.3241 32.2034 54.3241C32.0491 54.2726 31.8433 54.3241 31.6376 54.3755C31.4832 54.4784 31.3289 54.6327 31.226 54.8385C31.1231 55.0443 31.0717 55.3015 31.1746 55.5587C31.226 55.7645 31.3289 55.9188 31.5347 56.0732C31.6376 56.1246 31.7919 56.1761 31.8948 56.1761C32.0491 56.2275 32.152 56.2275 32.2549 56.1761C32.3578 56.0732 32.4092 55.9188 32.5121 55.7645C32.3578 55.6616 32.152 55.6102 31.9462 55.5073C31.8948 55.5073 31.7919 55.4558 31.689 55.4044L31.8948 54.89C31.9462 54.89 32.0491 54.9414 32.152 54.9929C32.5121 55.0957 32.8208 55.2501 33.0265 55.4044L33.1809 55.5073L33.1294 55.7131C33.078 55.7645 33.078 55.7645 33.078 55.8159C32.9237 56.1246 32.8208 56.4847 32.5121 56.639C32.3063 56.7934 32.0491 56.7934 31.8433 56.7419C31.6376 56.7419 31.4318 56.639 31.226 56.5362C30.8659 56.3304 30.7116 56.0217 30.6087 55.7131C30.5058 55.353 30.5573 54.9414 30.7116 54.5813C30.8659 54.2726 31.1231 54.0669 31.3804 53.9125C31.689 53.7582 32.0491 53.6553 32.3578 53.7582C32.5121 53.8097 32.7179 53.9125 32.8208 54.0669C32.9751 54.2212 33.1294 54.427 33.1809 54.6327L32.6664 54.7871Z" fill="#FEFEFE"/>
<path d="M34.9299 55.0449C35.0842 55.0964 35.2385 55.1478 35.3929 55.1993C35.5986 55.3021 35.8044 55.3536 36.0616 55.405L36.3189 55.4565L36.2674 55.7137C36.216 56.0738 36.1131 56.3825 36.0616 56.6397C35.9587 56.8969 35.8559 57.1541 35.7015 57.4113C35.5986 57.6171 35.3929 57.7714 35.1357 57.8743C34.8784 57.9258 34.5698 57.9258 34.364 57.8229C34.0039 57.72 33.7467 57.5142 33.5924 57.3599C33.438 57.1541 33.3351 56.9483 33.2837 56.6911L33.7981 56.5368C33.8496 56.6911 33.901 56.8454 34.0039 56.9483C34.1068 57.1027 34.3126 57.2055 34.5698 57.3084C34.6727 57.3599 34.827 57.3599 34.9813 57.3084C35.0842 57.257 35.1871 57.2055 35.2385 57.1541C35.3414 56.8969 35.4443 56.6911 35.4958 56.4339C35.5472 56.2796 35.5986 56.1252 35.6501 55.868C35.4958 55.868 35.3414 55.8166 35.2385 55.7651C35.0328 55.7137 34.8784 55.6108 34.7241 55.5594L34.9299 55.0449Z" fill="#FEFEFE"/>
<path d="M37.3481 57.0511C37.6054 57.0511 37.8111 57.1025 38.0169 57.1025C38.2741 57.154 38.5313 57.154 38.7886 57.2054C38.7886 56.691 38.6342 56.2794 38.1712 56.228H38.1198C37.914 56.228 37.7082 56.4338 37.5539 56.691C37.451 56.7939 37.3996 56.9482 37.3481 57.0511ZM37.9655 57.6684C37.7082 57.6684 37.451 57.617 37.2453 57.617C37.1938 57.7198 37.1938 57.8227 37.1938 57.8742C37.1938 58.0285 37.1938 58.1314 37.1938 58.2343H36.6279C36.6279 58.0799 36.6279 57.9771 36.6279 57.8227C36.6794 57.3083 36.8337 56.7939 37.0395 56.4338C37.2967 55.9708 37.6568 55.6621 38.1198 55.6621C38.1712 55.6621 38.1712 55.6621 38.2227 55.6621C39.5088 55.8164 39.4059 56.9996 39.303 58.0799C39.303 58.1828 39.303 58.3372 39.303 58.4401L38.7371 58.3886C38.7371 58.2343 38.7371 58.1314 38.7371 58.0285C38.7371 57.9256 38.7371 57.8742 38.7371 57.7713C38.4799 57.7198 38.2227 57.7198 37.9655 57.6684Z" fill="#FEFEFE"/>
<path d="M40.6401 55.9705L40.6915 56.6392L41.8747 55.6104L42.2863 56.0219L41.3603 56.7935L42.4406 57.8739L42.0805 58.2854L40.9488 57.2051L40.743 57.3594L40.7944 58.3369H40.1771L40.0742 55.9705H40.6401Z" fill="#FEFEFE"/>
<path d="M43.4179 57.7705C43.2636 57.1532 43.1093 56.6388 43.1607 56.1244C43.2122 55.6099 43.4179 55.1469 44.0353 54.9412C44.5497 54.7354 44.9612 54.9412 45.2699 55.4556C45.4757 55.8157 45.6815 56.3816 45.8358 57.1018L45.3213 57.2561C45.2699 57.0503 45.2185 56.8446 45.167 56.6902L43.8295 57.1018C43.8809 57.2561 43.9324 57.4104 43.9838 57.6162L43.4179 57.7705ZM43.7266 56.1758C43.7266 56.2787 43.7266 56.3816 43.7266 56.5359L44.9612 56.1244C44.9098 55.97 44.8584 55.8671 44.7555 55.7643C44.6011 55.507 44.4468 55.4041 44.241 55.507C43.8809 55.6099 43.7266 55.8671 43.7266 56.1758Z" fill="#FEFEFE"/>
<path d="M47.1735 56.5363L46.0418 54.7358L45.8875 54.4786L46.0932 54.3243C46.2476 54.2214 46.3504 54.1699 46.5048 54.067C46.762 53.8613 47.0192 53.7069 47.3279 53.5526C47.5851 53.3983 47.8423 53.3983 48.0995 53.4497C48.2538 53.5012 48.3567 53.604 48.4596 53.7069C48.5625 53.8098 48.614 53.9641 48.614 54.1699C48.614 54.3243 48.5625 54.53 48.4596 54.7358C48.5625 54.7358 48.614 54.7358 48.6654 54.7358C48.9741 54.7872 49.2313 54.8901 49.4885 55.0445L49.1798 55.5589C49.0255 55.4046 48.8197 55.3531 48.614 55.3017C48.4082 55.3017 48.2024 55.3017 47.9966 55.3531C47.8937 55.5074 47.7394 55.6103 47.5851 55.7132C47.5336 55.7132 47.4822 55.7647 47.3793 55.8161L47.688 56.2791L47.1735 56.5363ZM46.6591 54.6329L47.0706 55.3531C47.1735 55.3017 47.225 55.2502 47.2764 55.1988C47.3793 55.1473 47.5336 55.0445 47.6365 54.8901C47.9452 54.5815 48.0481 54.3243 48.0481 54.1699C48.0481 54.1185 48.0481 54.067 48.0481 54.067C47.9966 54.0156 47.9966 54.0156 47.9452 54.0156C47.8423 53.9641 47.688 54.0156 47.5851 54.067C47.3279 54.1699 47.0706 54.3757 46.8134 54.53C46.762 54.5815 46.7105 54.6329 46.6591 54.6329Z" fill="#FEFEFE"/>
<path d="M50.7745 54.0159C50.5688 53.7072 50.3115 53.3986 50.1058 53.1413C49.9 52.987 49.7457 52.7812 49.5913 52.6269L49.0769 53.0385L48.7168 52.6269L50.1572 51.3408L50.5688 51.7524L50.0029 52.2668C50.1572 52.4211 50.363 52.5755 50.5173 52.7812C50.7745 53.0385 50.9803 53.3471 51.2375 53.6558L50.7745 54.0159Z" fill="#FEFEFE"/>
<path d="M52.5238 52.3182C52.4723 52.2153 52.3694 52.1639 52.2665 52.061C51.5978 51.4951 50.7232 50.8263 51.4434 49.746C51.9579 48.9744 52.6266 49.1287 53.244 49.5402C53.3983 49.6946 53.6041 49.8489 53.7584 50.0032C53.9127 50.1061 54.0671 50.209 54.1699 50.3119L53.8613 50.7749C53.7584 50.672 53.6041 50.5691 53.3983 50.4148L52.5752 51.598L52.6266 51.6494C52.7295 51.7009 52.8324 51.8038 52.9353 51.9066L52.5238 52.3182ZM51.9064 50.0547C51.6492 50.5177 51.8035 50.8778 52.1122 51.1864L52.9353 50.0547C52.9353 50.0547 52.9353 50.0547 52.8839 50.0032C52.5752 49.7975 52.2151 49.6431 51.9064 50.0547Z" fill="#FEFEFE"/>
<path d="M47.688 25.1558C47.7909 25.0529 47.7395 25.0015 47.8424 24.8472C47.9452 24.7443 49.1284 23.5096 49.2313 23.4067C49.7972 22.738 50.2087 22.1721 50.6203 21.6062C51.0833 20.9889 51.4948 20.3716 51.9578 19.497C52.5751 18.5196 53.141 17.5422 53.3982 16.4619C53.7069 15.3816 53.7069 14.1984 53.2439 12.7065C52.9352 11.6777 52.3179 10.906 51.4434 10.3401C50.5174 9.7228 49.3342 9.31126 47.9452 9.05404C46.1962 8.74538 45.013 8.33383 43.8812 7.92228C43.4697 7.76795 43.0581 7.66507 42.5951 7.51074C41.9264 7.30496 41.3605 6.9963 40.7946 6.58476C40.3316 6.22465 39.9715 5.8131 39.56 5.40156C39.1999 5.8131 38.8398 6.22465 38.3768 6.58476C37.8109 6.9963 37.245 7.30496 36.5248 7.51074C36.1133 7.66507 35.7017 7.76795 35.2902 7.92228C34.1584 8.33383 32.9752 8.74538 31.2261 9.05404C29.8372 9.31126 28.654 9.7228 27.728 10.3401C26.8534 10.906 26.2361 11.6777 25.9275 12.7065C25.4645 14.1984 25.4645 15.3816 25.7731 16.4619C26.0304 17.5422 26.5962 18.5196 27.2136 19.497C27.6765 20.3716 28.0881 20.9889 28.5511 21.6062C28.9626 22.1721 29.3742 22.738 29.9401 23.4067C30.1458 23.664 30.403 23.9212 30.7117 24.1784C30.8146 24.2813 30.6088 24.4871 30.7117 24.5899L30.8146 24.6928L30.5574 25.1558L30.5059 25.1044C30.0944 24.6928 29.6828 24.3327 29.3227 23.9212C28.7569 23.2524 28.2939 22.6865 27.8823 22.0692C27.4193 21.4519 27.0078 20.7831 26.4933 19.9086C25.876 18.8797 25.3101 17.8509 25.0015 16.6677C24.6928 15.433 24.6414 14.0955 25.1558 12.4493C25.5159 11.2147 26.2361 10.3401 27.3164 9.67136C28.2939 9.0026 29.5799 8.5396 31.0718 8.28239C32.7694 7.97373 33.9526 7.56218 35.0329 7.15063C35.4445 6.9963 35.9075 6.89342 36.319 6.73909C36.8849 6.58476 37.3993 6.2761 37.8623 5.91599C38.4282 5.50444 38.8398 5.04145 39.2513 4.47558L39.56 4.01259L39.9201 4.47558C40.3316 5.04145 40.7432 5.50444 41.2576 5.91599C41.772 6.2761 42.2865 6.58476 42.8523 6.73909C43.2639 6.89342 43.7269 6.9963 44.1384 7.15063C45.2187 7.56218 46.4019 7.97373 48.0996 8.28239C49.5914 8.5396 50.8775 9.0026 51.8549 9.67136C52.8838 10.3401 53.6555 11.2147 54.0156 12.4493C54.53 14.0955 54.4786 15.433 54.1699 16.6677C53.8612 17.8509 53.2954 18.8797 52.678 19.9086C52.1636 20.7831 51.7521 21.4519 51.2891 22.0692C50.8775 22.6865 50.4145 23.2524 49.8486 23.9212C49.7458 24.0241 49.6429 24.1784 49.4885 24.2813C49.4885 24.3327 49.2313 24.5899 48.9227 24.8986C48.5626 25.2587 48.9741 24.2813 48.8712 24.3327L47.688 25.1558ZM26.1847 28.6025C26.1332 28.4482 25.5674 28.4482 25.5159 28.2939C25.2587 27.8309 25.0529 27.3164 24.7957 26.9049C24.3842 26.1332 24.0241 25.5674 23.6125 24.95C23.201 24.3327 22.6865 23.7669 22.0692 22.9952C21.349 22.1207 20.6288 21.2461 19.7028 20.6288C18.7768 20.0115 17.6451 19.5485 16.1018 19.497C15.0215 19.4456 14.0955 19.7543 13.2724 20.423C12.3979 21.0404 11.6262 22.0692 10.906 23.2524C10.0315 24.7957 9.20837 25.8246 8.48816 26.6991C8.1795 27.0592 7.92228 27.4193 7.66507 27.7794C7.20207 28.3453 6.68764 28.8083 6.12176 29.1684C5.65877 29.4771 5.14434 29.6828 4.62991 29.8886C4.88712 30.4031 5.14434 30.9175 5.29867 31.4319C5.50444 32.1007 5.60733 32.7694 5.60733 33.4897C5.55589 33.9012 5.55589 34.3642 5.55589 34.7757C5.55589 35.9589 5.55589 37.245 5.24723 38.9941C5.04145 40.4345 4.99001 41.6692 5.24723 42.698C5.50444 43.7269 6.01888 44.6014 6.89341 45.2188C8.12806 46.1447 9.25981 46.5563 10.3401 46.6592C11.4719 46.7106 12.5522 46.5563 13.7354 46.3505C14.6614 46.1447 15.433 45.9904 16.1018 45.7846C16.822 45.5789 17.4908 45.3216 18.3138 45.0644C18.7768 44.8586 19.3427 44.6014 19.8571 44.3957C20.2687 44.1899 20.886 43.9327 21.2461 43.7783L21.4005 44.1899L20.4745 44.7043C20.2687 44.8072 20.9375 44.7558 20.6288 44.9101C20.4745 45.013 20.3201 45.0644 20.2173 45.1159C19.6514 45.3731 19.0855 45.6303 18.5711 45.8361C17.748 46.0933 17.0792 46.3505 16.359 46.5563C15.6388 46.7621 14.8671 46.9164 13.8383 47.1222C12.6551 47.3279 11.5233 47.5337 10.2887 47.4308C9.05404 47.3279 7.76795 46.9164 6.37898 45.8875C5.35011 45.1159 4.78424 44.087 4.47557 42.9038C4.21836 41.7206 4.21836 40.3831 4.47557 38.8912C4.73279 37.1936 4.73279 35.9589 4.73279 34.7757C4.78424 34.3127 4.78424 33.8498 4.78424 33.4382C4.83568 32.8209 4.73279 32.255 4.52702 31.6891C4.37269 31.0718 4.06403 30.4545 3.65248 29.8886L3.34382 29.4256L3.85825 29.2713C4.52702 29.117 5.14434 28.8083 5.71022 28.4996C6.17321 28.1395 6.6362 27.7794 6.9963 27.265C7.25352 26.9049 7.51074 26.5962 7.8194 26.1847C8.5396 25.3102 9.3627 24.3327 10.1858 22.8409C10.9574 21.5548 11.832 20.4745 12.758 19.7543C13.7868 19.0341 14.8671 18.6225 16.1532 18.674C17.9023 18.7768 19.1369 19.2398 20.1658 19.96C21.1432 20.6288 21.9149 21.5548 22.6865 22.4808C23.3553 23.2524 23.8183 23.8697 24.2298 24.4871C24.6928 25.1044 25.0529 25.7217 25.5159 26.4934C25.7731 26.9563 26.0304 27.4708 26.2361 27.9852C26.2876 28.1395 26.339 28.2424 26.3905 28.3453L26.1847 28.6025ZM28.4482 26.7506L27.8309 26.4419L25.413 23.0466C24.3842 21.6062 23.3553 20.2173 22.3264 18.7768L22.275 18.6225H22.2235C21.5033 17.748 20.4745 17.1307 19.3427 16.7191C18.0566 16.2561 16.6677 16.1018 15.2787 16.1532C13.9412 16.2047 12.6551 16.6677 11.5233 17.3879C10.2372 18.211 9.10548 19.3427 8.38527 20.4745C7.66507 21.5033 7.20207 22.3264 6.73908 23.0981C6.17321 24.127 5.65877 25.0015 4.78424 26.0818C4.16691 26.9049 3.85825 27.5737 3.13805 27.9852C2.62361 28.3453 2.05774 28.5511 1.44041 28.7054C1.80052 29.2199 2.10918 29.7857 2.31495 30.3516C2.57217 31.1747 2.3664 31.9464 2.3664 32.9238C2.31495 34.3642 2.16062 35.3416 1.95485 36.5248C1.80052 37.3479 1.64619 38.2739 1.5433 39.56C1.38897 40.9489 1.49186 42.4922 2.00629 43.9841C2.41784 45.2188 3.0866 46.4019 4.11547 47.2765C5.14434 48.2025 6.37898 49.0256 7.66507 49.4886C8.79682 49.9001 9.92857 50.0544 11.0089 49.9001C11.2147 49.8487 11.369 49.7972 11.5748 49.7458C13.2724 49.1284 14.9186 48.6655 16.5648 48.2025C18.1081 47.7395 19.6514 47.2765 21.0918 46.8649C21.349 46.7621 21.5033 47.0193 21.7606 46.9678L22.0178 47.0193L22.0692 47.3794C21.8634 47.4308 21.7606 47.5337 21.5548 47.5851C20.0115 48.151 18.4682 48.5626 16.9249 48.9741L16.7705 49.0256H16.6677C15.0215 49.54 13.3753 50.0544 11.7805 50.5174C10.8546 50.9804 10.0315 51.9064 9.3627 52.9353C8.5396 54.2728 7.97373 55.8675 7.66507 57.3079C7.3564 58.6455 7.51074 59.983 7.87084 61.2176C8.33383 62.7095 9.15692 64.047 10.0829 65.0759C10.906 66.0533 11.5748 66.7221 12.1921 67.3394C13.0152 68.1625 13.7354 68.8827 14.6099 70.0145C15.1758 70.7861 15.5873 71.5578 15.8446 72.3809C15.9989 72.9467 16.1018 73.5641 16.1018 74.1814C16.6677 73.9756 17.285 73.8213 17.9023 73.7698C18.7254 73.7184 19.5999 73.8213 20.5774 74.1299C21.9149 74.49 22.8409 74.9016 23.9212 75.416C24.6928 75.7761 25.5674 76.1362 26.7506 76.5992C28.0366 77.1137 29.5799 77.3709 31.1233 77.268C32.4608 77.1651 33.7469 76.805 34.8786 76.0848C36.0618 75.3131 37.1421 74.3357 37.9138 73.204C38.5825 72.2265 39.097 71.1462 39.1999 70.0659C39.1484 68.214 39.1484 66.4649 39.1999 64.7158C39.1484 63.3783 39.1484 62.0407 39.1484 60.6518C39.1484 60.2402 39.5085 60.1888 39.5085 59.7258L39.7143 59.9316C39.7143 60.446 40.023 60.3431 40.023 60.8061C40.023 62.1436 40.023 63.4297 39.9715 64.7158C40.023 66.4649 40.023 68.214 39.9715 70.0659C40.0744 71.1462 40.5374 72.2265 41.2576 73.204C42.0293 74.3357 43.1096 75.3131 44.2928 76.0848C45.4245 76.805 46.7106 77.1651 48.0481 77.268C49.5914 77.3709 51.1347 77.1137 52.4208 76.5992C53.604 76.1362 54.4786 75.7761 55.2502 75.416C56.3305 74.9016 57.2565 74.49 58.594 74.1299C59.5714 73.8213 60.446 73.7184 61.2691 73.7698C61.8864 73.8213 62.5037 73.9756 63.0696 74.1814C63.0696 73.5641 63.1725 72.9467 63.3268 72.3809C63.584 71.5578 63.9956 70.7861 64.5615 70.0145C65.436 68.8827 66.1562 68.1625 66.9793 67.3394C67.5966 66.7221 68.2654 66.0533 69.0885 65.0759C70.0145 64.047 70.8375 62.7095 71.3005 61.2176C71.6606 59.983 71.815 58.6455 71.5063 57.3079C71.1977 55.8675 70.6318 54.2728 69.8087 52.9353C69.1399 51.9064 68.3168 50.9804 67.3394 50.5174C65.7961 50.0544 64.2528 49.5914 62.7095 49.1284L62.658 49.077L62.4523 49.0256C60.8575 48.614 58.7998 47.9967 57.0507 47.3794L57.1536 47.1222C57.7709 47.225 58.0796 46.8649 58.1825 46.8649C59.7258 47.3279 61.4234 47.8424 62.8124 48.3054C64.3557 48.7169 65.899 49.1284 67.5966 49.7458C67.8024 49.7972 67.9567 49.8487 68.1625 49.9001C69.2428 50.0544 70.3746 49.9001 71.5063 49.4886C72.7924 49.0256 74.027 48.2025 75.0559 47.2765C76.0848 46.4019 76.7535 45.2188 77.1651 43.9841C77.6795 42.4922 77.7824 40.9489 77.6281 39.56C77.5252 38.2739 77.3709 37.3479 77.2165 36.5248C77.0108 35.3416 76.8564 34.3642 76.805 32.9238C76.805 31.9464 76.5478 31.1747 76.8564 30.4031C77.0622 29.8372 77.3194 29.2713 77.6795 28.7569C77.0622 28.6025 76.5478 28.3453 75.9819 28.0367C75.2617 27.6251 75.0045 26.9049 74.3871 26.0818C73.5126 25.0015 72.9982 24.127 72.4323 23.0981C71.9693 22.3264 71.5063 21.5033 70.7861 20.4745C70.0145 19.3427 68.9341 18.211 67.6481 17.3879C66.5163 16.6677 65.2302 16.2047 63.8927 16.1532C62.5037 16.1018 61.0633 16.2561 59.7772 16.7191C58.6969 17.0792 57.7709 17.5936 57.1022 18.3139C57.0507 18.4167 56.9993 18.5196 56.9478 18.5711L56.8964 18.6225L51.3919 26.3905L50.7232 26.9563L50.1573 27.4193L50.2602 26.9563H50.3116C50.5174 26.5962 50.3116 26.4419 50.5174 26.1332C51.3405 24.95 52.215 23.7669 53.0381 22.5837C54.1184 21.0918 55.1988 19.5485 56.2276 18.0566L56.2791 18.0052C56.3305 17.9537 56.382 17.9023 56.382 17.8509C56.8449 16.9763 56.9993 15.9475 56.9993 14.8671C56.9993 13.4782 56.6392 12.0892 56.1247 10.8031C55.6103 9.51703 54.7358 8.48816 53.7069 7.66507C52.4723 6.73909 51.0833 6.07032 49.6943 5.76166C48.4597 5.453 47.5337 5.24723 46.7106 5.0929C45.5274 4.88712 44.55 4.68135 43.2124 4.2698C42.235 3.96114 41.4634 3.39526 40.8461 2.88083C40.3831 2.46928 39.9715 2.00629 39.56 1.49186C39.1999 2.00629 38.7883 2.46928 38.3253 2.88083C37.708 3.39526 36.8849 3.96114 35.9589 4.2698C34.6214 4.68135 33.644 4.88712 32.4608 5.0929C31.6377 5.24723 30.7117 5.453 29.4771 5.76166C28.0881 6.07032 26.6477 6.73909 25.4645 7.66507C24.4356 8.48816 23.5611 9.51703 23.0466 10.8031C22.5322 12.0892 22.1721 13.4782 22.1721 14.8671C22.1721 16.0503 22.3779 17.1821 22.8923 18.1595L22.9952 18.2624L25.9789 22.4293L26.1332 22.6351C26.9049 23.7154 27.728 24.8472 28.4996 25.9789C28.4996 25.9789 28.7054 26.802 28.7569 27.0078L28.4482 26.7506ZM10.0829 50.7746C9.15692 50.7746 8.28239 50.5689 7.3564 50.2602C6.01888 49.7458 4.68135 48.8712 3.60104 47.8938C2.46928 46.8649 1.69763 45.5789 1.23464 44.2413C0.720207 42.6466 0.565877 40.9489 0.720207 39.4571C0.874538 38.171 1.02887 37.245 1.13175 36.3705C1.33753 35.2387 1.49186 34.2613 1.5433 32.9238C1.5433 31.9978 1.80052 31.329 1.5433 30.6088C1.28608 29.9401 0.925981 29.3227 0.462991 28.7569L0 28.191L0.668764 28.0881C1.44041 27.9338 2.10918 27.6766 2.7265 27.3164C3.34382 26.9049 3.60104 26.339 4.16691 25.6188C4.99001 24.5385 5.453 23.7154 6.07032 22.6865C6.48187 21.9663 6.94486 21.1432 7.71651 20.0115C8.5396 18.7768 9.67136 17.5422 11.1118 16.6677C12.3464 15.896 13.7354 15.3816 15.2787 15.3301C16.7191 15.2787 18.2624 15.4845 19.5999 15.9989C20.3201 16.2561 20.9889 16.5648 21.6062 16.9763C21.4519 16.3076 21.349 15.5874 21.349 14.8671C21.4005 13.3753 21.7091 11.832 22.275 10.4945C22.8409 9.10548 23.8183 7.92228 24.95 7.04775C26.2876 6.01888 27.8309 5.29867 29.2713 4.93857C30.5059 4.62991 31.4834 4.47558 32.3064 4.32125C33.4382 4.11547 34.4156 3.9097 35.7017 3.49815C36.5763 3.24093 37.245 2.67506 37.8109 2.21207C38.3768 1.74908 38.8398 1.23464 39.2513 0.565877L39.56 0L39.9201 0.565877C40.3316 1.23464 40.7946 1.74908 41.3605 2.21207C41.9264 2.67506 42.5951 3.24093 43.4697 3.49815C44.7557 3.9097 45.7332 4.11547 46.8649 4.32125C47.688 4.47558 48.6654 4.62991 49.9001 4.93857C51.3405 5.29867 52.8838 6.01888 54.2213 7.04775C55.3531 7.92228 56.2791 9.10548 56.8964 10.4945C57.4623 11.832 57.7709 13.3753 57.8224 14.8671C57.8224 15.5359 57.7709 16.2047 57.6166 16.8734C58.1825 16.4619 58.7998 16.1532 59.4686 15.9475C60.909 15.4845 62.4523 15.2787 63.8927 15.3301C65.436 15.3816 66.825 15.896 68.0596 16.6677C69.5 17.5422 70.6318 18.7768 71.4549 20.0115C72.2265 21.1432 72.6895 21.9663 73.1011 22.6865C73.7184 23.7154 74.1814 24.5385 75.0045 25.6188C75.5703 26.339 75.7761 26.9563 76.3934 27.3679C77.0108 27.728 77.731 27.9852 78.4512 28.1395L79.1199 28.2424L78.7084 28.7569C78.194 29.3742 77.8338 29.9915 77.5766 30.6603C77.3709 31.3805 77.6281 31.9978 77.6281 32.9238C77.6795 34.2613 77.8338 35.2387 78.0396 36.3705C78.1425 37.245 78.2968 38.171 78.4512 39.4571C78.6055 40.9489 78.4512 42.6466 77.9367 44.2413C77.4737 45.5789 76.7021 46.8649 75.5703 47.8938C74.49 48.8712 73.1525 49.7458 71.815 50.2602C70.889 50.5689 69.963 50.7746 69.0885 50.7746C69.6029 51.2891 70.0659 51.8549 70.4774 52.5237C71.352 53.9641 71.9693 55.6103 72.3294 57.1022C72.6381 58.594 72.4837 60.0859 72.0722 61.4749C71.5578 63.0696 70.6832 64.51 69.7058 65.6418C68.8313 66.6192 68.1625 67.288 67.5452 67.9053C66.7221 68.7284 66.0533 69.3971 65.2302 70.4775C64.6643 71.1977 64.3042 71.8664 64.0985 72.5866C63.8927 73.3068 63.8412 74.0271 63.8927 74.7987L63.9441 75.4675L63.3268 75.1588C62.6066 74.8501 61.9378 74.6444 61.2176 74.5929C60.4974 74.5415 59.7258 74.6444 58.8512 74.9016C57.5652 75.2617 56.6392 75.6732 55.6103 76.1362C54.7872 76.4963 53.9127 76.9079 52.7295 77.3709C51.2891 77.8853 49.6429 78.194 47.9967 78.0911C46.5563 77.9882 45.1159 77.5766 43.8298 76.7536C42.5951 75.9305 41.4634 74.9016 40.5888 73.667C40.1773 73.1011 39.8172 72.4838 39.56 71.815C39.3542 72.4838 38.9941 73.1011 38.5825 73.667C37.708 74.9016 36.5763 75.9305 35.3416 76.7536C34.0555 77.5766 32.6151 77.9882 31.1747 78.0911C29.5285 78.194 27.8309 77.8853 26.4419 77.3709C25.2587 76.9079 24.3842 76.4963 23.5611 76.1362C22.5322 75.6732 21.6062 75.2617 20.3201 74.9016C19.4456 74.6444 18.674 74.5415 17.9537 74.5929C17.2335 74.6444 16.5133 74.8501 15.8446 75.1588L15.2272 75.4675L15.2787 74.7987C15.3301 74.0271 15.2787 73.3068 15.0729 72.5866C14.8671 71.8664 14.507 71.1977 13.9412 70.4775C13.1181 69.3971 12.4493 68.7284 11.6262 67.9053C11.0089 67.288 10.3401 66.6192 9.46558 65.6418C8.48816 64.51 7.61362 63.0696 7.09919 61.4749C6.68764 60.0859 6.53331 58.594 6.84197 57.1022C7.20207 55.6103 7.8194 53.9641 8.69393 52.5237C9.10548 51.8549 9.56847 51.2891 10.0829 50.7746ZM36.6791 60.9604C36.7306 61.1662 36.9878 60.3946 37.0392 60.6003C37.0907 61.0119 37.1421 61.6292 37.1421 61.7321C37.245 62.6066 37.2965 63.3268 37.2965 64.047C37.2965 64.8187 37.2965 65.5903 37.245 66.6192C37.1421 67.8024 37.0392 68.9856 36.6277 70.1174C36.2161 71.3006 35.4445 72.4323 34.107 73.5126C33.0781 74.2843 31.9978 74.6444 30.7631 74.5929C29.5285 74.5929 28.2424 74.1814 26.8534 73.5641C25.3101 72.8953 24.0755 72.5352 22.9952 72.278C22.5322 72.1236 22.0692 72.0208 21.6577 71.8664C21.0918 71.7121 20.4745 71.6092 19.9086 71.6607C19.2398 71.6607 18.6225 71.815 17.9537 72.0722L17.4393 72.2265V71.6607C17.4393 70.9919 17.3364 70.3231 17.1306 69.7058C16.9249 69.1399 16.6677 68.6255 16.2561 68.1625C15.9989 67.8024 15.7417 67.4423 15.4845 67.0822C14.7643 66.1562 14.044 65.1273 12.8608 63.9441C11.7805 62.8638 10.9574 61.7321 10.4945 60.6518C10.0315 59.52 9.92857 58.3368 10.3401 57.1022C10.8546 55.456 11.6262 54.3757 12.6036 53.5526C13.5296 52.7809 14.5585 52.2665 15.6902 51.7521C16.5648 51.3405 17.285 51.0319 18.0052 50.7746C18.7254 50.5174 19.4456 50.3116 20.2687 50.0544C20.7831 49.9001 21.9149 49.7458 22.4808 49.6429L22.0178 50.3116L22.738 50.4145L22.5836 50.466C22.0692 50.5174 20.9375 50.7232 20.4745 50.8261C19.6514 51.0833 18.9826 51.2891 18.2624 51.5463C17.5936 51.7521 16.8734 52.0607 15.9989 52.4723C14.97 52.9867 13.9412 53.4497 13.1181 54.1699C12.295 54.8901 11.5748 55.8675 11.1118 57.3594C10.8031 58.3883 10.8546 59.3657 11.2661 60.3431C11.6776 61.372 12.3979 62.3494 13.4267 63.3783C14.6614 64.6129 15.433 65.6418 16.1018 66.6192C16.359 66.9793 16.6677 67.3394 16.9249 67.6481C17.3364 68.214 17.6451 68.8313 17.9023 69.5C18.0566 70.0145 18.1595 70.5803 18.211 71.1462C18.7768 70.9919 19.2913 70.889 19.8571 70.8376C20.5774 70.8376 21.2461 70.889 21.9149 71.0948C22.3779 71.2491 22.738 71.352 23.201 71.4549C24.3327 71.7635 25.5674 72.1236 27.1621 72.8439C28.4996 73.4097 29.6828 73.7698 30.7631 73.7698C31.792 73.8213 32.7694 73.5126 33.5925 72.8439C34.8272 71.9179 35.4959 70.889 35.856 69.8601C36.2161 68.8313 36.319 67.6995 36.4219 66.5678C36.4734 65.5389 36.5248 64.8187 36.5248 64.0985C36.4734 63.3268 36.4219 62.6581 36.3705 61.7835C36.3705 61.6806 36.2161 60.6003 36.1647 60.446C36.1647 60.3431 36.1647 60.2402 36.1133 60.1373L36.4734 60.0344L36.6791 60.9604ZM42.8523 60.3946C42.8009 60.6003 43.0581 60.4974 43.0067 60.7032C42.8523 61.6292 42.7495 62.4523 42.698 63.2754C42.6466 64.3043 42.6466 65.3331 42.7495 66.5678C42.8523 67.6995 42.9552 68.8313 43.3153 69.8601C43.6754 70.889 44.3442 71.9179 45.5788 72.8439C46.4019 73.5126 47.3794 73.8213 48.4082 73.7698C49.4885 73.7698 50.6717 73.4097 52.0093 72.8439C53.604 72.1236 54.8387 71.7635 55.9704 71.4549C56.382 71.352 56.7935 71.2491 57.2565 71.0948C57.9253 70.889 58.594 70.8376 59.3142 70.8376C59.8801 70.889 60.3945 70.9919 60.9604 71.1462C61.0119 70.5803 61.1147 70.0145 61.2691 69.5C61.4749 68.8313 61.835 68.214 62.2465 67.6481C62.5037 67.3394 62.7609 66.9793 63.0696 66.6192C63.7384 65.6418 64.51 64.6129 65.7447 63.3783C66.7735 62.3494 67.4937 61.372 67.9053 60.3431C68.3168 59.3657 68.3683 58.3883 68.0596 57.3594C67.5966 55.8675 66.8764 54.8901 66.0533 54.1699C65.2302 53.4497 64.2014 52.9867 63.1725 52.4723C62.2979 52.0607 61.5777 51.7521 60.8575 51.5463C60.1888 51.2891 59.52 51.0833 58.6969 50.8261C58.2339 50.7232 56.4848 50.4145 55.919 50.3116H55.8161C55.7646 50.2088 56.8964 50.3631 56.9993 50.0544C56.9993 50.003 56.8449 49.6943 56.7935 49.6429C57.5652 49.7972 58.5426 49.9515 58.9027 50.0544C59.7258 50.3116 60.446 50.5174 61.1662 50.7746C61.8864 51.0319 62.6066 51.3405 63.4811 51.7521C64.6129 52.2665 65.6418 52.7809 66.5677 53.5526C67.5452 54.3757 68.3168 55.456 68.8313 57.1022C69.2428 58.3368 69.1399 59.52 68.6769 60.6518C68.2139 61.7321 67.3908 62.8638 66.3105 63.9441C65.1273 65.1273 64.4071 66.1562 63.6869 67.0822C63.4297 67.4423 63.1725 67.8024 62.8638 68.1625C62.5037 68.6255 62.2465 69.1399 62.0407 69.7058C61.835 70.3231 61.7321 70.9919 61.7321 71.6607V72.2265L61.2176 72.0722C60.5489 71.815 59.9315 71.6607 59.2628 71.6607C58.6455 71.6092 58.0796 71.7121 57.5137 71.8664C57.1022 72.0208 56.6392 72.1236 56.1762 72.278C55.0959 72.5352 53.8612 72.8953 52.3179 73.5641C50.929 74.1814 49.6429 74.5929 48.4082 74.5929C47.1736 74.6444 46.0418 74.2843 45.0644 73.5126C43.7269 72.4323 42.9552 71.3006 42.5437 70.1174C42.1321 68.9856 42.0293 67.8024 41.9264 66.6192C41.8749 65.3846 41.8235 64.3043 41.8749 63.2754C41.9264 62.5552 42.0293 61.835 42.1321 61.1148C42.1836 60.7547 42.5951 60.4974 42.6466 60.0859L42.8523 60.3946ZM52.8838 28.4482C52.9867 28.2424 53.0381 28.0881 53.141 27.9338C53.1925 27.8309 53.0381 27.7794 53.0896 27.6251C53.2439 27.2136 53.4497 26.8535 53.6555 26.4934C54.1184 25.7217 54.4786 25.1044 54.8901 24.4871C55.3531 23.8697 55.8161 23.2524 56.4848 22.4808C57.2565 21.5548 58.0281 20.6288 59.0056 19.96C60.0344 19.2398 61.2691 18.7768 63.0182 18.674C64.3042 18.6225 65.3845 19.0341 66.4134 19.7543C67.3394 20.4745 68.1625 21.5548 68.9856 22.8409C69.8087 24.3327 70.6318 25.3102 71.352 26.1847C71.6092 26.5962 71.9179 26.9049 72.1751 27.265C72.5352 27.7794 72.9982 28.1395 73.4612 28.4996C74.027 28.8083 74.6444 29.117 75.2617 29.2713L75.8276 29.4256L75.5189 29.8886C75.1074 30.4545 74.7987 31.0718 74.6444 31.6891C74.4386 32.255 74.3357 32.8209 74.3871 33.4382C74.3871 33.8498 74.3871 34.3127 74.4386 34.7757C74.4386 35.9589 74.4386 37.1936 74.6958 38.8912C74.953 40.3831 74.953 41.7206 74.6958 42.9038C74.3871 44.087 73.7698 45.1159 72.7924 45.8875C71.4034 46.9164 70.1173 47.3279 68.8827 47.4308C67.6481 47.5337 66.5163 47.3279 65.3331 47.1222C64.3042 46.9164 63.5326 46.7621 62.8124 46.5563C62.0922 46.3505 61.4234 46.0933 60.6003 45.8361C60.0859 45.6303 59.5714 45.3731 59.1085 45.1159C58.9541 45.013 58.7998 45.013 58.6969 44.9101C58.6455 44.7558 58.3368 44.3957 58.0796 44.2928L58.594 44.087C58.8512 44.1899 58.7998 44.0356 59.1085 44.1899C59.2628 44.2928 59.3657 44.3442 59.4686 44.3957C59.9315 44.6529 60.446 44.9101 60.8575 45.0644C61.6806 45.3216 62.3494 45.5789 63.0696 45.7846C63.7384 45.9904 64.51 46.1447 65.436 46.3505C66.6192 46.5563 67.6995 46.7106 68.8313 46.6592C69.9116 46.5563 71.0433 46.1447 72.278 45.2188C73.1525 44.6014 73.6669 43.7269 73.9242 42.698C74.1814 41.6692 74.1299 40.4345 73.9242 38.9941C73.6155 37.245 73.6155 35.9589 73.6155 34.7757C73.6155 34.3642 73.6155 33.9012 73.564 33.4897C73.564 32.7694 73.6669 32.1007 73.8727 31.4319C74.027 30.9175 74.2328 30.4031 74.5415 29.8886C74.027 29.6828 73.5126 29.4771 73.0496 29.1684C72.4837 28.8083 71.9693 28.3453 71.5063 27.7794C71.2491 27.3679 70.9919 27.0592 70.6832 26.6991C69.963 25.8246 69.1399 24.7957 68.2654 23.2524C67.5452 22.0692 66.7735 21.0404 65.899 20.423C65.0759 19.7543 64.1499 19.4456 63.0696 19.497C61.4749 19.5485 60.3945 20.0115 59.4686 20.6288C58.5426 21.2461 57.8224 22.1207 57.1022 22.9952C56.4334 23.7669 55.9704 24.3327 55.5589 24.95C55.1473 25.5674 54.7872 26.1332 54.3757 26.9049C54.1184 27.3164 53.9127 27.8309 53.6555 28.2939C53.604 28.4996 53.0381 28.5511 52.9867 28.7054L52.8838 28.4482Z" fill="#FEFEFE"/>
<path d="M61.7835 15.4331C62.3493 13.2725 62.658 11.7292 62.4522 9.67145C60.7546 10.1344 59.1599 10.9061 57.4108 12.0893L57.1536 11.3176C58.9026 10.1344 60.6517 9.2599 62.7095 8.74546L63.121 8.64258L63.1724 9.10557C63.4297 11.1633 63.3268 13.221 62.6066 15.3302L61.7835 15.4331Z" fill="#FEFEFE"/>
<path d="M71.3005 54.7877C73.5126 54.6848 75.1073 54.479 77.0108 53.6559C76.0333 52.2155 74.8501 50.9294 73.1525 49.6433L73.8213 49.1289C75.4675 50.415 76.8564 51.8554 77.9367 53.6559L78.1425 54.016L77.731 54.2218C75.879 55.0963 73.8727 55.5593 71.6092 55.5593L71.3005 54.7877Z" fill="#FEFEFE"/>
<path d="M36.7821 75.6211C37.5538 77.6788 38.2225 79.2221 39.5601 80.7654C40.6918 79.4279 41.7207 77.6274 42.338 75.6211L43.0068 76.187C42.5952 77.6788 41.2577 80.0967 39.8687 81.64L39.5601 82.0001L39.2514 81.64C37.8624 80.0967 36.7821 78.2962 36.1648 76.1355L36.7821 75.6211Z" fill="#FEFEFE"/>
<path d="M6.37868 49.5919C4.57816 50.878 3.34352 51.9068 2.21176 53.6045C3.75506 54.3247 5.50414 54.7877 7.61332 54.942L7.25321 55.7137C5.19548 55.5079 3.29207 55.0449 1.38867 54.1189L1.02856 53.9131L1.23434 53.553C2.36609 51.804 3.80651 50.3121 5.70991 49.1289L6.37868 49.5919Z" fill="#FEFEFE"/>
<path d="M21.7607 12.6043C20.0116 11.2668 18.6741 10.3408 16.7192 9.77496C16.462 11.4726 16.5649 13.3246 17.0279 15.3823L16.2048 15.3308C15.7418 13.2731 15.6389 11.2154 15.999 9.15764L16.0505 8.74609L16.462 8.84898C18.4683 9.41486 20.3203 10.3408 22.0179 11.8327L21.7607 12.6043Z" fill="#FEFEFE"/>
<path fill-rule="evenodd" clip-rule="evenodd" d="M39.5601 35.7022C42.8525 35.7022 45.5276 38.3773 45.5276 41.6182C45.5276 44.9106 42.8525 47.5857 39.5601 47.5857C36.3192 47.5857 33.6441 44.9106 33.6441 41.6182C33.6441 38.3773 36.3192 35.7022 39.5601 35.7022ZM39.5601 35.2393C43.1097 35.2393 45.9906 38.1201 45.9906 41.6182C45.9906 45.1678 43.1097 48.0487 39.5601 48.0487C36.062 48.0487 33.1812 45.1678 33.1812 41.6182C33.1812 38.1201 36.062 35.2393 39.5601 35.2393Z" fill="#FEFEFE"/>
<path d="M28.2938 55.6611C27.7279 56.227 27.1106 56.7929 26.5447 57.3587C25.2072 58.5934 23.8182 59.828 22.8408 61.3199C22.0691 62.5031 21.6576 63.8406 21.246 65.2296C21.1431 65.744 20.9888 66.207 20.8345 66.67C21.246 66.4128 21.6576 66.1556 22.1206 65.8984C23.3552 65.1781 24.5384 64.4579 25.5158 63.4291C26.7505 62.0915 27.625 60.4968 28.551 58.902C28.9625 58.1818 29.3741 57.4616 29.7856 56.7414C29.2712 56.4328 28.7568 56.0727 28.2938 55.6611ZM28.0366 60.5997C27.7793 61.1141 27.5736 61.6285 27.4192 62.0915C27.3163 62.5031 27.2135 62.8632 27.2135 63.2233C28.0366 62.6574 28.7053 61.8858 29.3226 60.9598C29.9914 59.9309 30.5573 58.7992 31.1746 57.5645C30.8145 57.4102 30.5058 57.2044 30.1457 56.9986C29.7342 57.6674 29.3226 58.3876 28.9111 59.1078C28.6024 59.6223 28.3452 60.0852 28.0366 60.5997ZM31.5347 57.7703C31.3804 58.1818 31.1746 58.5419 30.9688 58.9535C30.7631 59.4679 30.6087 59.9824 30.5058 60.4968C30.4544 60.9598 30.403 61.3713 30.403 61.7829C30.8145 61.3713 31.1232 60.8569 31.3804 60.291C31.689 59.6737 31.9977 58.7477 32.152 58.079C31.9463 57.9761 31.7405 57.8732 31.5347 57.7703ZM30.0943 60.5482C29.94 60.754 29.8371 60.9598 29.6827 61.1656C28.9625 62.2973 28.088 63.2233 27.0591 63.8406L26.7505 64.0464V63.6348C26.7505 63.1719 26.8019 62.7603 26.9048 62.3488C26.5961 62.8117 26.236 63.2747 25.8245 63.6863C24.8471 64.7666 23.561 65.5382 22.3263 66.2585C21.4004 66.8243 20.6287 67.3388 19.8056 67.9561C20.32 66.9787 20.5258 66.207 20.8345 65.1267C21.246 63.6863 21.6576 62.2973 22.4807 61.0627C22.7893 60.6511 23.098 60.1881 23.4581 59.7766C23.098 59.9824 22.7379 60.0852 22.3778 60.1881L21.9662 60.291L22.1206 59.9309C22.3778 59.0049 22.8922 58.1818 23.5095 57.3587C23.5095 57.3587 23.4581 57.3587 23.4581 57.4102C23.098 57.4616 22.7893 57.5131 22.4807 57.5645L21.9662 57.616L22.2749 57.2559C22.5836 56.7414 22.9437 56.2784 23.3552 55.8669C23.1494 55.9183 22.9437 55.9698 22.7379 55.9698L22.2749 56.0212L22.5321 55.6611C22.8922 55.0952 23.3038 54.5808 23.7668 54.1178C23.4581 54.2207 23.098 54.3236 22.7893 54.375L22.3263 54.4265L22.5321 54.0149C22.7893 53.6034 23.098 53.2433 23.4067 52.8832C23.098 52.9861 22.7893 53.0375 22.4807 53.0375H22.1206L22.2749 52.7288C22.4807 52.3687 22.6864 52.0601 22.9951 51.7514C22.7893 51.8029 22.5836 51.8029 22.3778 51.8029H22.0177L22.172 51.4942C22.3263 51.1341 22.5836 50.8254 22.8922 50.5682C22.5836 50.6197 22.2749 50.6197 21.9662 50.5682H21.6576L21.8119 50.311C21.9148 49.9509 22.1206 49.6422 22.3778 49.385C22.4292 49.385 22.4292 49.385 22.4292 49.385C22.172 49.385 21.9662 49.385 21.709 49.3336L21.4004 49.2821L21.5032 49.0249C21.6576 48.7677 21.8119 48.5619 22.0691 48.3562C21.8119 48.3047 21.5547 48.2533 21.2975 48.1504L21.0917 48.0475L21.1946 47.8417C21.3489 47.5845 21.5547 47.3787 21.7605 47.2244C21.5032 47.173 21.1946 47.0701 20.9374 46.9672L20.6802 46.8643L20.8345 46.6071C20.9888 46.4527 21.1431 46.3499 21.2975 46.1955C21.0403 46.1955 20.783 46.0926 20.5773 45.9898L20.2686 45.8869L20.4744 45.6297C20.6802 45.4753 20.8345 45.321 21.0917 45.1667C20.8345 45.1667 20.5258 45.1152 20.2686 45.0123L19.9085 44.9094L20.2172 44.6522C20.4229 44.4465 20.7316 44.2407 20.9888 44.0864L21.0403 44.0349C20.9888 44.0349 20.9888 44.0349 20.9374 44.0349C20.5773 43.9835 20.2172 43.8806 19.8571 43.7777L19.4455 43.6234L19.8056 43.4176C20.0628 43.2118 20.3715 43.0575 20.6802 42.9032C20.6287 42.9032 20.5773 42.9032 20.5258 42.9032C20.1143 42.8517 19.6513 42.6974 19.1883 42.4916L18.7767 42.3373L19.1883 42.1315C19.497 41.9772 19.8056 41.8228 20.1657 41.72C19.5998 41.6171 19.0854 41.5142 18.5195 41.257L18.108 41.1026L18.4681 40.8969C18.6739 40.7425 18.8796 40.6396 19.0854 40.5368C18.6224 40.4339 18.108 40.2795 17.645 40.0738L17.182 39.8165L17.645 39.6622C17.9537 39.5593 18.3138 39.4564 18.6224 39.3536C18.0565 39.3021 17.3878 39.0963 16.719 38.7877L16.3589 38.6334L16.6676 38.4276C16.8219 38.3247 17.0791 38.2218 17.2849 38.1189C16.3075 37.8617 15.4329 37.4502 14.6613 36.8328L14.3526 36.5756L14.7127 36.4727C15.1243 36.3184 15.5358 36.2155 15.9988 36.1641C15.4329 36.0097 14.8671 35.8554 14.3526 35.5982C12.9636 35.0838 11.8319 34.1578 10.7001 33.2318C9.92849 32.6145 9.20828 32.1 8.33374 31.5342C9.36261 31.5856 10.2371 31.5342 11.266 31.4313C12.7064 31.3284 14.1983 31.2255 15.5873 31.5342C16.1531 31.6885 16.6676 31.8428 17.182 32.0486C16.8733 31.7399 16.6161 31.4827 16.4104 31.1226L16.1531 30.814H16.5647C17.6964 30.7111 18.8282 30.9683 20.0114 31.4313L19.9599 31.3798C19.7542 31.1226 19.5998 30.814 19.4455 30.5567L19.2397 30.1452L19.7027 30.2481C20.3715 30.4024 21.0403 30.6082 21.709 30.8654H21.6576C21.4518 30.5567 21.246 30.2481 21.1431 29.888L20.9374 29.4764L21.4004 29.6308C22.1206 29.888 22.7893 30.1966 23.4581 30.5567C23.1494 30.1966 22.8922 29.7851 22.6864 29.3221L22.5321 28.9105L22.9437 29.0134C23.4067 29.1678 23.8182 29.3221 24.2297 29.5793C24.0754 29.3221 23.9211 29.0649 23.8182 28.8077L23.6639 28.4476L24.0754 28.5504C24.487 28.6019 24.8985 28.7562 25.2586 28.962C25.1043 28.7562 25.0014 28.499 24.95 28.1903L24.8471 27.8302L25.2072 27.9331C25.4644 27.9846 25.773 28.1389 26.0303 28.2932C25.9274 28.0875 25.8759 27.8817 25.8245 27.6759L25.7216 27.3158L26.0817 27.4187C26.3389 27.4701 26.5961 27.573 26.8534 27.6759C26.7505 27.4701 26.6476 27.2644 26.5961 27.0071L26.4933 26.647L26.8534 26.7499C27.2135 26.8528 27.5221 27.0071 27.7793 27.1615C27.6765 26.9043 27.625 26.5956 27.625 26.2869V25.8239L27.9851 26.0812C28.088 26.184 28.1909 26.2869 28.3452 26.3898C28.2423 26.1326 28.2423 25.8754 28.2938 25.6182L28.3967 25.4124L28.6024 25.4638C28.8082 25.5153 28.9625 25.6182 29.1169 25.7211C29.1169 25.5667 29.0654 25.4638 29.0654 25.2581V25.0008L29.3741 25.0523C29.5799 25.1552 29.7856 25.2581 29.94 25.4124C29.8885 25.2066 29.8885 24.9494 29.8885 24.6407L29.8371 24.3321L30.1972 24.4864C30.3515 24.5379 30.4544 24.6407 30.6087 24.7436C30.5573 24.4864 30.5573 24.2292 30.5573 23.972L30.6087 23.6633L30.9174 23.8177C31.1232 23.9205 31.3289 24.1263 31.5347 24.2806C31.4833 23.972 31.4318 23.6119 31.4318 23.3032V22.8402L31.7919 23.0974C31.9977 23.3032 32.2549 23.4575 32.4092 23.7148C32.3064 23.3032 32.2549 22.8402 32.3064 22.3772V22.0686L32.615 22.2229C32.9751 22.4287 33.3352 22.7373 33.5924 23.046C33.4381 22.3772 33.4381 21.7085 33.4381 21.0397L33.4896 20.6282L33.7982 20.8854C34.1069 21.0912 34.3641 21.3998 34.6213 21.7085C34.5699 21.3484 34.5699 21.0397 34.6213 20.731C34.6213 20.1652 34.7242 19.5478 34.8785 18.982L34.9814 18.6219L35.2386 18.8791C35.5473 19.1877 35.8045 19.5478 36.0103 19.9594C35.9074 18.6733 36.0103 17.4901 36.4218 16.3584L36.5762 15.9983L36.8334 16.3584C37.0392 16.667 37.2449 16.9757 37.4507 17.3358C37.3993 16.7699 37.3993 16.2555 37.4507 15.6896C37.5536 14.2492 38.068 12.9117 38.6339 11.5227C38.994 10.6996 39.2512 9.82505 39.5599 9.00195C39.92 9.82505 40.1772 10.6996 40.5373 11.5227C41.0517 12.9117 41.5662 14.2492 41.6691 15.6896C41.7205 16.3069 41.7205 16.8728 41.7205 17.4387C41.8748 17.0786 42.132 16.667 42.3893 16.3584L42.595 15.9983L42.7494 16.3584C43.1095 17.3358 43.2638 18.4161 43.2124 19.4964C43.3667 19.2392 43.521 19.0334 43.7268 18.8791L43.984 18.6219L44.0869 18.982C44.1383 19.5993 44.1898 20.2166 44.1898 20.8339C44.1898 21.0397 44.1898 21.2455 44.1898 21.5027C44.3956 21.0912 44.7042 20.731 45.0129 20.4224L45.373 20.1137V20.5767C45.373 21.1426 45.3215 21.7085 45.2701 22.2743C45.4244 22.0171 45.6302 21.7599 45.8874 21.5541L46.1961 21.194L46.2475 21.657C46.299 22.2229 46.2475 22.7888 46.1961 23.3547C46.1446 23.4575 46.1446 23.6119 46.1446 23.7148C46.3504 23.3547 46.6591 23.046 46.9677 22.6859L47.3278 22.3772V22.8402C47.3793 23.2003 47.3278 23.5604 47.2764 23.8691C47.4307 23.6633 47.6365 23.509 47.7908 23.3547L48.1509 23.0974V23.5604C48.1509 23.972 48.0995 24.3321 47.9966 24.7436C48.2538 24.4864 48.511 24.2806 48.7682 24.1263L49.0769 23.972L49.1283 24.3321C49.1283 24.6407 49.0769 24.898 49.0255 25.2066C49.1798 25.0523 49.3856 24.9494 49.5913 24.8465L49.8486 24.7436L49.9 25.0523C49.9 25.3095 49.8486 25.5667 49.7971 25.8239C50.0029 25.6696 50.1572 25.5667 50.363 25.4638L50.6202 25.3095L50.6716 25.6182C50.7231 25.9783 50.6716 26.3384 50.5688 26.6985C50.6202 26.6985 50.6716 26.647 50.6716 26.647C50.9289 26.4413 51.1861 26.3384 51.3919 26.2355L51.752 26.0812L51.7005 26.4413C51.6491 26.7499 51.5976 27.0586 51.4433 27.3158C51.4947 27.3158 51.4947 27.3158 51.5462 27.2644C51.8034 27.11 52.0606 26.9557 52.3693 26.8528L52.7294 26.6985L52.6779 27.11C52.6265 27.3158 52.5751 27.5216 52.4722 27.7273C52.6779 27.6245 52.9352 27.5216 53.1924 27.4701L53.501 27.3672L53.4496 27.7273C53.3981 27.9331 53.3467 28.1389 53.2438 28.3447C53.501 28.1903 53.8097 28.0875 54.1184 28.036L54.427 27.9846L54.3241 28.2932C54.3241 28.5504 54.2212 28.8077 54.1184 29.0134C54.427 28.8077 54.7871 28.6533 55.1472 28.499L55.5073 28.3447L55.4044 28.7562C55.353 29.1163 55.2501 29.3735 55.0958 29.6308C55.5588 29.3735 56.0218 29.1678 56.4848 29.0649L56.8449 29.0134L56.742 29.3735C56.6391 29.7336 56.3819 30.0937 56.1246 30.4539C56.6905 30.1452 57.3078 29.888 57.8737 29.7336L58.3367 29.5793L58.1309 29.9909C57.9766 30.351 57.8223 30.6596 57.5651 30.9683C57.7194 30.8654 57.8737 30.814 57.9766 30.7625C58.491 30.5567 59.0055 30.351 59.5714 30.2481L59.88 30.1452L59.7771 30.5053C59.7257 30.8654 59.5714 31.1741 59.3656 31.4313C60.4459 31.0712 61.4748 30.8654 62.5551 30.9168H62.9152L62.7094 31.2769C62.4522 31.5856 62.195 31.8943 61.9377 32.1515C62.4522 31.9457 62.9666 31.7914 63.4811 31.6885C64.9215 31.3284 66.3619 31.4313 67.8023 31.5856C68.7283 31.637 69.6028 31.637 70.5288 31.6885C69.8086 32.3058 69.0884 32.8202 68.3682 33.3861C67.2364 34.2607 66.1047 35.1866 64.7671 35.7011C64.2013 35.9583 63.6868 36.1126 63.1209 36.267C63.5325 36.3184 63.944 36.4213 64.3556 36.5756L64.7157 36.6785L64.407 36.9357C63.5325 37.6559 62.4522 38.1189 61.2175 38.4276C61.3204 38.4276 61.4233 38.479 61.5262 38.479C61.9377 38.5819 62.2979 38.6848 62.5551 38.7877L63.0181 38.9935L62.5036 39.1992C61.7834 39.5079 61.0118 39.6622 60.1887 39.8165C60.7031 39.9194 61.1661 40.0223 61.5776 40.2795L61.9892 40.5368L61.5262 40.6396C60.806 40.8454 60.2401 40.9997 59.7257 41.0512C60.0858 41.1541 60.3944 41.3599 60.7546 41.5656L61.1147 41.8228L60.6517 41.9772C60.1372 42.0801 59.6228 42.1829 59.1084 42.2344C59.417 42.3373 59.7771 42.4916 60.0343 42.6974L60.3944 43.006L59.9829 43.1089C59.5714 43.2118 59.1598 43.2633 58.7483 43.2633C59.0569 43.4176 59.3656 43.6234 59.5714 43.932L59.7771 44.1892L59.4685 44.2407C59.2112 44.3436 58.9026 44.395 58.5939 44.395C58.8511 44.4979 59.0055 44.7037 59.0569 44.858L59.1598 45.0638L58.954 45.1667C58.6968 45.2181 58.491 45.2695 58.2338 45.321C58.491 45.4753 58.6968 45.6297 58.8511 45.8869L59.0055 46.0926L58.7483 46.1955C58.4396 46.2984 58.1824 46.3499 57.8223 46.4013C58.0795 46.5556 58.2338 46.71 58.3882 46.9157L58.491 47.1215L58.2338 47.2244C57.9766 47.3273 57.7194 47.3787 57.4107 47.3787C57.7194 47.5845 57.9766 47.8417 58.1309 48.0989L58.2853 48.3562L58.0281 48.4076C57.7194 48.5105 57.3593 48.5105 56.9992 48.5105C57.2564 48.7163 57.4622 48.922 57.6165 49.2307L57.7194 49.4879L57.4622 49.5394C57.2564 49.5394 57.0506 49.5394 56.8449 49.5394C56.9992 49.6937 57.1535 49.848 57.2564 50.0023L57.4622 50.2596L57.1535 50.311C56.8449 50.4139 56.5362 50.4653 56.279 50.4139C56.5362 50.6711 56.7934 50.9798 56.9477 51.2884L57.1535 51.5456L56.7934 51.5971C56.5362 51.5971 56.3304 51.5971 56.0732 51.5971C56.3819 51.8029 56.6905 52.0601 56.8963 52.3687L57.1535 52.6774H56.742C56.4333 52.6774 56.1246 52.6774 55.816 52.626C56.1761 52.8832 56.4333 53.2433 56.6905 53.6034L56.9477 53.9635H56.5362C56.1246 53.9635 55.816 53.8606 55.4559 53.7577C55.9189 54.2207 56.3304 54.6837 56.6391 55.1981L56.8963 55.6097L56.4333 55.5068C56.0218 55.4553 55.6617 55.3525 55.3016 55.2496C55.4559 55.4039 55.6102 55.5582 55.7131 55.7126C56.1761 56.2784 56.5362 56.8958 56.9477 57.5131C56.2275 57.3073 55.5588 57.153 54.8386 56.8443C55.6617 57.8732 56.5362 59.1078 57.205 60.291C56.5876 60.1367 56.2275 59.9309 55.7131 59.6737C56.0732 60.0852 56.4848 60.5997 56.7934 61.0627C57.6165 62.2973 58.0281 63.6863 58.4396 65.1267C58.7483 66.1556 59.0055 66.9787 59.417 67.9561C58.5939 67.2873 57.8737 66.8243 56.9477 66.2585C55.6617 65.5382 54.427 64.7666 53.4496 63.6863C53.038 63.2747 52.6779 62.8117 52.3693 62.3488C52.4722 62.7603 52.5236 63.1719 52.5236 63.6348V64.0464L52.2149 63.8406C51.1861 63.2233 50.363 62.2973 49.5913 61.217C49.5913 61.2684 49.5913 61.3713 49.5913 61.4228C49.5913 61.7829 49.5399 62.143 49.4884 62.4516L49.3856 62.8632L49.0769 62.5545C48.5625 61.8343 48.0995 61.1141 47.6879 60.3425C47.6365 60.291 47.6365 60.291 47.6365 60.2396C47.6879 61.0112 47.7394 61.7314 47.585 62.4516C47.0192 61.9372 46.7105 61.3713 46.3504 60.6511C46.3504 61.0627 46.3504 61.4742 46.2475 61.7829L46.1446 62.2459L45.8874 61.8858C45.5273 61.4228 45.2701 60.9598 45.0643 60.3939C45.0129 60.754 44.91 61.0627 44.7557 61.4228L44.6528 61.7829L44.3956 61.4742C44.1383 61.1141 43.9326 60.7026 43.7782 60.291C43.7268 60.5997 43.6239 60.9598 43.4696 61.2684L43.3152 61.5771L43.1095 61.3199C42.9551 61.0627 42.8008 60.8055 42.6465 60.5482C42.595 60.8055 42.4921 61.0112 42.3893 61.217L42.1835 61.5771L41.9777 61.217C41.8748 61.0112 41.8234 60.8055 41.7205 60.5997C41.6691 60.8055 41.5662 60.9598 41.4633 61.1656L41.309 61.4228L41.1032 61.1656C41.0003 61.0112 40.8974 60.8569 40.7945 60.6511C40.6916 60.9083 40.5887 61.1141 40.4344 61.3199L40.2801 61.5771L40.0743 61.3199C39.9714 61.1656 39.8171 60.9083 39.7142 60.5997C39.6628 60.5482 39.6113 60.4454 39.5599 60.3425C39.457 60.6511 39.3027 60.9598 39.0969 61.1656L38.9426 61.3199L38.7882 61.1141C38.6339 60.9083 38.4796 60.6511 38.4281 60.3939V60.4454C38.2738 60.754 38.1195 61.0627 37.9137 61.3199L37.7079 61.6285L37.5536 61.2684C37.4507 61.0627 37.3993 60.8055 37.3478 60.4968C37.1935 60.754 37.0392 61.0112 36.8334 61.217L36.5762 61.4742L36.4733 61.1656C36.3704 60.9598 36.3189 60.7026 36.2675 60.4968C36.1132 60.9083 35.856 61.217 35.5987 61.4228L35.3415 61.5771L35.2386 61.3199C35.1872 61.0627 35.1357 60.8055 35.0843 60.4968C34.93 60.9598 34.7242 61.3199 34.3641 61.68L34.1069 61.9887L34.004 61.5771C33.9525 61.217 33.9011 60.8569 33.9011 60.4454C33.9011 60.4968 33.8497 60.5482 33.8497 60.5997C33.5924 61.1656 33.2838 61.5771 32.9237 61.8858L32.5636 62.0915V61.68C32.5636 61.4228 32.5636 61.1656 32.615 60.8569C32.2549 61.5257 31.9977 61.9372 31.4833 62.4516C31.4318 62.0401 31.3804 61.6285 31.3804 61.217C31.0717 61.68 30.7631 62.0915 30.3001 62.5031L29.9914 62.8117L29.94 62.3488C29.94 61.7829 29.9914 61.1656 30.0943 60.5482ZM32.5636 58.2333C32.3578 59.0049 32.152 59.6737 31.8948 60.291C31.8434 60.5482 31.7919 60.8569 31.7919 61.1141C31.7919 61.1656 31.7919 61.2684 31.8434 61.3713C32.0491 61.0112 32.2549 60.6511 32.4092 60.2396C32.6665 59.7251 32.9237 59.1593 33.1295 58.5419V58.4905C32.9237 58.3876 32.7179 58.3362 32.5636 58.2333ZM49.0769 60.3425C48.5625 59.5194 48.1509 58.6448 47.6879 57.7189C47.4822 57.8217 47.3278 57.9246 47.1221 58.0275C47.3793 58.7477 47.6879 59.4679 48.048 60.1367C48.3567 60.754 48.7168 61.3199 49.1283 61.8858C49.1798 61.7314 49.1798 61.5771 49.1798 61.4228C49.1798 61.1141 49.1283 60.754 49.0769 60.3425ZM48.0995 57.5131C48.6654 58.7477 49.2827 59.9309 49.9514 60.9598C50.5688 61.8858 51.2375 62.6574 52.0606 63.2233C52.0606 62.8632 51.9577 62.5031 51.8548 62.0915C51.7005 61.6285 51.4947 61.1141 51.2375 60.5997C50.9289 60.0852 50.6716 59.6223 50.363 59.1078C49.9514 58.3876 49.5399 57.6674 49.0769 56.9472C48.7682 57.153 48.4081 57.3587 48.0995 57.5131ZM33.541 58.6448C33.3352 59.2107 33.2323 59.7251 33.1295 60.1881C33.078 60.5482 33.0266 60.8569 32.9751 61.1656C33.1809 60.9598 33.3352 60.7026 33.4381 60.4454C33.6953 59.9824 33.8497 59.4679 34.0554 58.7992C33.9011 58.7477 33.6953 58.6963 33.541 58.6448ZM34.5184 58.9535C34.4155 59.3136 34.3641 59.7251 34.3641 60.0852C34.3641 60.3939 34.3641 60.7026 34.3641 60.9598C34.7242 60.4968 34.8785 59.828 35.0843 59.1078C34.8785 59.0564 34.7242 59.0049 34.5184 58.9535ZM35.5473 59.2107C35.4958 59.5194 35.4444 59.828 35.4958 60.0852C35.4958 60.3425 35.5473 60.5997 35.5987 60.8055C35.7016 60.7026 35.8045 60.4968 35.9074 60.3425C36.0103 60.0338 36.1132 59.7251 36.2161 59.365C36.0103 59.3136 35.7531 59.2622 35.5473 59.2107ZM36.679 59.4165C36.679 59.6737 36.679 59.9309 36.679 60.1367C36.679 60.3425 36.7305 60.4968 36.7819 60.5997C36.8848 60.4968 36.9363 60.291 37.0392 60.1367C37.142 59.9309 37.1935 59.7251 37.2449 59.5194C37.0392 59.4679 36.8848 59.4679 36.679 59.4165ZM37.7079 59.5708C37.6565 59.828 37.7079 60.0338 37.7079 60.291C37.7594 60.3939 37.7594 60.5482 37.8108 60.7026C37.8622 60.5482 37.9651 60.3939 38.0166 60.2396C38.1195 60.0338 38.1709 59.828 38.2223 59.6223C38.068 59.5708 37.8622 59.5708 37.7079 59.5708ZM38.7368 59.6223C38.7368 59.828 38.7882 60.0338 38.7882 60.1881C38.8397 60.3425 38.8911 60.4968 38.9426 60.6511C39.0454 60.4968 39.0969 60.3939 39.1483 60.2396C39.1998 60.0338 39.2512 59.8795 39.3027 59.6737C39.0969 59.6737 38.9426 59.6737 38.7368 59.6223ZM39.8685 59.6737C39.92 59.9824 40.0229 60.2396 40.0743 60.4454C40.1258 60.5997 40.1772 60.7026 40.2801 60.8055C40.383 60.4454 40.4859 60.0338 40.5373 59.6223C40.2801 59.6223 40.0743 59.6737 39.8685 59.6737ZM41.0003 59.6223C41.0003 59.8795 41.0517 60.1367 41.1032 60.291C41.1546 60.4454 41.2061 60.5482 41.2575 60.5997C41.309 60.4454 41.3604 60.291 41.4118 60.1367C41.4118 59.9309 41.4633 59.7766 41.4633 59.5708C41.309 59.5708 41.1546 59.5708 41.0003 59.6223ZM41.9263 59.5194C41.9263 59.7766 41.9777 60.0338 42.0806 60.2396C42.0806 60.3939 42.132 60.4968 42.1835 60.5997C42.2349 60.4454 42.2864 60.291 42.3378 60.1367C42.3893 59.9309 42.4407 59.7251 42.4407 59.4679C42.4407 59.4679 42.4407 59.4679 42.4407 59.4165C42.2864 59.4679 42.0806 59.4679 41.9263 59.5194ZM42.9037 59.365C42.9037 59.4165 42.9037 59.4165 42.8523 59.4679C42.9037 59.7251 42.9037 59.9824 43.0066 60.1881C43.058 60.3425 43.1095 60.5482 43.2124 60.7026C43.3152 60.4968 43.3667 60.2396 43.4181 60.0338C43.4696 59.7766 43.521 59.5194 43.521 59.2107C43.3152 59.2622 43.1095 59.3136 42.9037 59.365ZM43.984 59.1078C44.0355 59.4679 44.0869 59.828 44.1898 60.1367C44.2927 60.3939 44.3956 60.5997 44.4984 60.8569C44.6013 60.5482 44.6528 60.2396 44.6528 59.9309C44.7042 59.6223 44.6528 59.3136 44.6528 59.0049L44.6013 58.9535C44.3956 59.0049 44.1898 59.0564 43.984 59.1078ZM45.0643 58.7992C45.0643 58.8506 45.0643 58.902 45.0643 58.9535C45.1158 59.365 45.2701 59.828 45.4244 60.2396C45.5788 60.5482 45.7331 60.8569 45.9389 61.1656C45.9389 60.8569 45.9389 60.5482 45.9389 60.1881C45.8874 59.7251 45.836 59.2622 45.6816 58.7477C45.6816 58.6963 45.6816 58.6448 45.6816 58.5934C45.4759 58.6963 45.2701 58.7477 45.0643 58.7992ZM46.0932 58.4391C46.0932 58.4905 46.0932 58.5419 46.0932 58.5934C46.2475 59.2107 46.4533 59.7766 46.6591 60.2396C46.8134 60.6511 47.0192 61.0627 47.2764 61.4228C47.2764 60.9083 47.2249 60.4454 47.1221 59.9309C47.0706 59.365 46.9163 58.7477 46.7105 58.1818C46.5047 58.2847 46.299 58.3876 46.0932 58.4391ZM54.8386 58.6963C55.0958 58.8506 55.353 59.0049 55.6102 59.1078C55.816 59.2107 55.9703 59.3136 56.1761 59.4165C55.4559 58.3362 54.7357 57.3073 53.8611 56.3299C53.0895 55.9183 52.4207 55.4553 51.8034 54.8895C51.5976 55.0438 51.4433 55.1981 51.289 55.3525C51.8548 55.9183 52.4207 56.4842 53.038 56.9986C53.6554 57.5645 54.2212 58.1304 54.8386 58.6963ZM49.437 56.7414C49.9 57.4102 50.3115 58.1818 50.7231 58.902C51.6491 60.4968 52.5236 62.0915 53.7583 63.4291C54.7357 64.4579 55.9189 65.1781 57.1535 65.8984C57.6165 66.1556 58.0281 66.4128 58.4396 66.67C58.2853 66.207 58.1309 65.744 58.0281 65.2296C57.6165 63.8406 57.205 62.5031 56.4333 61.3199C55.4559 59.828 54.0669 58.5934 52.7294 57.3587C52.1121 56.7929 51.4947 56.227 50.9289 55.6097C50.4659 56.0212 49.9514 56.3813 49.437 56.7414ZM52.1121 54.5808C52.7294 55.1467 53.4496 55.6097 54.1698 56.0212C54.7357 56.3299 55.353 56.5871 55.9703 56.7929C55.7645 56.5357 55.6102 56.227 55.353 55.9698C55.0958 55.6097 54.7357 55.1981 54.3756 54.8895C53.8097 54.6322 53.2438 54.3236 52.7294 53.9635C52.6265 54.1178 52.4722 54.2207 52.3178 54.375C52.2664 54.4265 52.1635 54.5294 52.1121 54.5808ZM53.038 53.6548C53.501 53.9635 54.0155 54.2721 54.5299 54.4779C54.9929 54.6837 55.4559 54.838 55.9703 54.9924C55.6617 54.6322 55.353 54.2721 55.0443 53.9635C54.6328 53.6034 54.1698 53.2433 53.6554 52.8832C53.4496 53.1404 53.2438 53.3976 53.038 53.6548ZM53.9126 52.5745C54.3241 52.8317 54.6842 53.0375 55.0958 53.1918C55.4044 53.3462 55.7131 53.449 56.0732 53.5005C55.8674 53.2433 55.6102 52.9861 55.353 52.7803C55.0443 52.5231 54.6842 52.2659 54.2727 52.0601C54.1698 52.2659 54.0669 52.4202 53.9126 52.5745ZM54.5299 51.7C54.8386 51.8543 55.1472 52.0086 55.5073 52.0601C55.7131 52.163 55.9703 52.2144 56.1761 52.2144C56.0218 52.1115 55.8674 52.0086 55.7131 51.8543C55.4044 51.7 55.0958 51.5456 54.7357 51.3399C54.6842 51.4942 54.5813 51.5971 54.5299 51.7ZM54.9929 50.9798C55.2501 51.0312 55.4559 51.0827 55.7131 51.1341C55.9189 51.1855 56.1761 51.1855 56.3819 51.1855C56.279 51.0312 56.1246 50.8769 55.9703 50.7225C55.816 50.5682 55.6102 50.4139 55.4044 50.2596C55.3016 50.5168 55.1472 50.7225 54.9929 50.9798ZM55.6617 49.7966C55.816 49.8995 56.0218 49.9509 56.2275 49.9509C56.3819 50.0023 56.5362 50.0023 56.6905 50.0023C56.5876 49.8995 56.4848 49.7966 56.3304 49.7451C56.1761 49.6422 56.0218 49.5394 55.816 49.4879C55.7645 49.5908 55.7131 49.6937 55.6617 49.7966ZM56.0218 49.0249C56.2275 49.0764 56.3819 49.0764 56.5876 49.1278C56.742 49.1278 56.8963 49.1278 57.0506 49.1278C56.9477 49.0249 56.8449 48.922 56.742 48.8706C56.5876 48.7163 56.4333 48.6134 56.2275 48.5619C56.1761 48.7163 56.1246 48.8706 56.0218 49.0249ZM56.4333 48.0475C56.6391 48.0475 56.7934 48.0989 56.9992 48.0989C57.205 48.0989 57.4107 48.0989 57.5651 48.0475C57.4622 47.9446 57.3078 47.8417 57.205 47.7388C56.9992 47.6359 56.8449 47.5331 56.6391 47.4302C56.5876 47.6359 56.4848 47.8417 56.4333 48.0475ZM56.7934 46.9672C56.9992 46.9672 57.205 46.9672 57.3593 46.9672C57.5136 46.9672 57.6679 46.9157 57.8223 46.9157C57.7194 46.8129 57.6165 46.7614 57.5136 46.6585C57.3593 46.5556 57.1535 46.4527 56.9992 46.4013C56.9477 46.5556 56.8449 46.7614 56.7934 46.9672ZM57.1021 45.8869C57.3078 45.9383 57.5651 45.9383 57.7708 45.9383C57.9252 45.9383 58.1309 45.9383 58.2853 45.8869C58.1824 45.784 58.0281 45.6811 57.8737 45.5782C57.6679 45.4753 57.4622 45.4239 57.205 45.321C57.205 45.5268 57.1535 45.7325 57.1021 45.8869ZM57.3078 44.858C57.5651 44.9094 57.7708 44.9094 57.9766 44.9094C58.1824 44.9094 58.3367 44.858 58.491 44.858C58.4396 44.7551 58.2853 44.7037 58.1824 44.6522C57.9252 44.4979 57.6679 44.4465 57.4107 44.3436C57.3593 44.4979 57.3593 44.7037 57.3078 44.858ZM57.4622 43.8806C57.7708 43.932 58.0281 43.932 58.2853 43.932C58.5425 43.9835 58.7483 43.932 59.0055 43.932C58.7997 43.7777 58.5939 43.6748 58.3882 43.5719C58.1309 43.469 57.8223 43.3661 57.5136 43.3147C57.5136 43.5205 57.5136 43.6748 57.4622 43.8806ZM57.5651 42.8517C57.9252 42.8517 58.2338 42.8517 58.5425 42.8517C58.7997 42.8517 59.0569 42.8003 59.3141 42.8003C59.1084 42.6974 58.9026 42.5945 58.6454 42.543C58.3367 42.4402 57.9766 42.3373 57.6165 42.2858C57.6165 42.4916 57.5651 42.6459 57.5651 42.8517ZM57.6165 41.8228C58.0281 41.8228 58.491 41.8228 58.954 41.7714C59.3141 41.7714 59.6742 41.72 60.0343 41.6685C59.3141 41.3084 58.491 41.257 57.6165 41.2055C57.6165 41.3599 57.6165 41.5142 57.6165 41.6171C57.6165 41.72 57.6165 41.7714 57.6165 41.8228ZM57.5651 40.794H57.7194C58.6454 40.7425 59.5714 40.6911 60.806 40.3824C60.4459 40.2795 60.0343 40.1767 59.5714 40.1767C58.954 40.0738 58.2338 40.0738 57.5651 40.1252C57.5651 40.331 57.5651 40.5368 57.5651 40.794ZM57.5136 39.6622C57.6679 39.6622 57.8223 39.6108 57.9766 39.6108C59.2627 39.5079 60.6002 39.405 61.7834 38.9935C61.6805 38.9935 61.5776 38.942 61.4233 38.8906C61.0632 38.8391 60.6517 38.7362 60.1887 38.6334C59.3141 38.7877 58.3882 38.8906 57.4107 38.9935C57.4622 39.1992 57.4622 39.4564 57.5136 39.6622ZM57.3593 38.5819C58.5939 38.4276 59.8286 38.2732 60.9603 38.016C62.0406 37.7588 63.0181 37.3987 63.8412 36.8328C63.4811 36.7299 63.0695 36.6785 62.7094 36.6785C62.195 36.6271 61.6291 36.6785 61.0632 36.7299C60.4973 36.8328 59.9315 36.9357 59.3656 36.9872C58.5939 37.1415 57.8737 37.2444 57.1021 37.3987C57.205 37.7588 57.3078 38.1704 57.3593 38.5819ZM56.279 34.7751C56.9477 34.4664 57.6679 34.1063 58.3367 33.7977C58.8511 33.489 59.417 33.2318 59.9315 32.9746C60.4459 32.7174 60.9089 32.4601 61.269 32.1515C61.5776 31.8943 61.8349 31.637 62.0921 31.3284C61.1147 31.3284 60.0858 31.5856 59.0569 31.9972C57.9766 32.4087 56.8963 33.026 55.7645 33.6433C55.9189 34.0034 56.1246 34.415 56.279 34.7751ZM56.9992 36.9872C57.7708 36.8328 58.5425 36.6785 59.3141 36.5756C61.1147 36.267 62.9152 36.0097 64.6128 35.341C65.8989 34.8265 66.9792 33.9006 68.111 33.026C68.5225 32.7174 68.8826 32.4087 69.2942 32.1C68.7797 32.0486 68.3167 32.0486 67.8023 31.9972C66.3619 31.8943 64.9215 31.7914 63.5839 32.1C61.8349 32.5116 60.1887 33.3347 58.5425 34.1578C57.8223 34.5179 57.1535 34.878 56.4333 35.1866C56.6391 35.7525 56.8449 36.3698 56.9992 36.9872ZM55.5588 33.2318C56.5362 32.7174 57.4622 32.2029 58.3882 31.8428C58.6454 31.637 58.8511 31.4313 59.0055 31.1741C59.1084 31.0712 59.1598 30.9168 59.2627 30.7625C58.9026 30.8654 58.491 31.0197 58.1824 31.1741C57.6679 31.3798 57.205 31.637 56.7934 31.8943C56.3819 32.3058 55.9189 32.6659 55.4559 33.0775C55.5073 33.1289 55.5073 33.1804 55.5588 33.2318ZM43.4181 24.0234C43.4696 23.509 43.5725 23.046 43.7268 22.6345C43.7268 22.0171 43.7782 21.3998 43.7782 20.8339C43.7782 20.3709 43.7268 19.9594 43.7268 19.5478C43.6753 19.5993 43.6239 19.7022 43.5725 19.8051C43.4181 20.0623 43.2638 20.3709 43.1095 20.6796C43.0066 21.7085 42.8008 22.7373 42.595 23.8691C42.8523 23.9205 43.1609 23.972 43.4181 24.0234ZM55.2501 32.6659C55.7131 32.3058 56.1761 31.8943 56.5876 31.4827C56.9477 31.0712 57.2564 30.7111 57.5136 30.2995C57.0506 30.4539 56.6391 30.6596 56.2275 30.8654C55.7131 31.1741 55.2501 31.4827 54.7357 31.8943C54.9414 32.1515 55.0958 32.4087 55.2501 32.6659ZM54.4785 31.4827L54.5813 31.4313C55.1987 30.8654 55.816 30.2481 56.1761 29.6308C55.8674 29.7336 55.5588 29.888 55.2501 30.0423C54.8386 30.2995 54.427 30.5567 54.0669 30.8654C54.2212 31.0712 54.3756 31.2769 54.4785 31.4827ZM53.7583 30.5053C54.2212 30.0937 54.6328 29.6822 54.89 29.1163C54.6328 29.2192 54.427 29.3221 54.1698 29.4764C53.9126 29.6822 53.6554 29.8365 53.3981 30.0937C53.5525 30.1966 53.6554 30.351 53.7583 30.5053ZM53.1409 29.7336C53.2953 29.5279 53.4496 29.3735 53.5525 29.1678C53.6554 28.962 53.7583 28.7562 53.8611 28.5504C53.6554 28.6019 53.4496 28.7048 53.2953 28.8077C53.0895 28.9105 52.8837 29.0649 52.6779 29.2192C52.8323 29.425 52.9866 29.5793 53.1409 29.7336ZM52.3693 28.9105C52.5236 28.7562 52.6265 28.6019 52.7294 28.3961C52.7808 28.2932 52.8837 28.1389 52.9352 27.9846C52.7808 28.036 52.6265 28.1389 52.4722 28.1903C52.3178 28.3447 52.1635 28.4476 52.0606 28.6019C52.1635 28.7048 52.2149 28.8077 52.3178 28.8591C52.3693 28.9105 52.3693 28.9105 52.3693 28.9105ZM51.7005 28.2932C51.8548 28.036 52.0092 27.7273 52.1121 27.4187C52.0092 27.5216 51.9063 27.573 51.752 27.6245C51.5976 27.7273 51.4947 27.8302 51.3404 27.9846C51.4433 28.0875 51.5976 28.1903 51.7005 28.2932ZM50.8774 27.573C51.0318 27.3158 51.1346 27.0586 51.1861 26.8014C51.0832 26.8528 51.0318 26.9043 50.9289 26.9557C50.7745 27.0586 50.6716 27.2129 50.5173 27.3158C50.6716 27.4187 50.7745 27.4701 50.8774 27.573ZM50.0543 26.9557C50.1572 26.647 50.2601 26.3384 50.2601 26.0297C50.1572 26.1326 50.0543 26.184 49.9 26.2869C49.7971 26.3898 49.6942 26.4927 49.5913 26.647C49.7457 26.7499 49.9 26.8528 50.0543 26.9557ZM49.1798 26.3898C49.2827 26.2355 49.3341 26.0297 49.3856 25.8754C49.3856 25.7211 49.437 25.5667 49.437 25.4124C49.3341 25.5153 49.2312 25.6182 49.1283 25.7211C49.0255 25.8754 48.9226 25.9783 48.8197 26.1326C48.974 26.2355 49.0769 26.2869 49.1798 26.3898ZM48.4081 25.9268C48.511 25.5667 48.6139 25.1552 48.6654 24.7436C48.5625 24.8465 48.4081 24.9494 48.3053 25.0523C48.0995 25.2581 47.9451 25.4124 47.8423 25.5667C48.048 25.6696 48.2024 25.7725 48.4081 25.9268ZM47.3793 25.361C47.4822 25.1552 47.5336 24.898 47.585 24.6922C47.6365 24.4864 47.6879 24.2292 47.6879 24.0234C47.585 24.1778 47.4307 24.2806 47.3278 24.435C47.1735 24.6407 47.0192 24.898 46.8648 25.1552C47.0706 25.2066 47.2249 25.3095 47.3793 25.361ZM46.4533 24.9494C46.6591 24.4864 46.8134 23.972 46.9163 23.4061C46.7105 23.6119 46.5562 23.8177 46.4533 24.0234C46.2475 24.2292 46.0932 24.4864 45.9389 24.7436C46.1446 24.8465 46.299 24.898 46.4533 24.9494ZM45.4759 24.5893C45.5788 24.1778 45.6816 23.7148 45.7331 23.3032C45.7845 22.9431 45.836 22.583 45.836 22.2229C45.5788 22.583 45.373 22.8917 45.2701 23.2518C45.1158 23.509 45.0643 23.7662 45.0129 24.0234C44.9614 24.1263 44.9614 24.2806 44.91 24.3835C45.1158 24.435 45.3215 24.5379 45.4759 24.5893ZM44.4984 24.2806C44.4984 24.1263 44.5499 24.0234 44.6013 23.9205C44.6528 23.4575 44.7557 22.9946 44.8071 22.5316C44.8585 22.0686 44.91 21.6056 44.91 21.1426C44.6528 21.4513 44.447 21.8628 44.2927 22.2743C44.0869 22.8402 43.9326 23.4575 43.8297 24.1263C44.0355 24.1778 44.2927 24.2292 44.4984 24.2806ZM42.1835 23.7662C42.4407 22.4801 42.6979 21.2455 42.7494 20.0108C42.8523 18.9305 42.8008 17.9017 42.4921 16.9242C42.2864 17.2329 42.132 17.593 41.9777 17.9531C41.7719 18.4161 41.6691 18.9305 41.5662 19.4964C41.4633 20.0623 41.4118 20.6796 41.309 21.2455C41.2061 22.0686 41.0517 22.8402 41.0003 23.6633C41.3604 23.6633 41.7719 23.7148 42.1835 23.7662ZM38.2738 23.6633C38.1709 22.8402 38.068 22.0171 37.9137 21.2455C37.8108 20.6796 37.7079 20.1137 37.6565 19.4964C37.5536 18.9305 37.3993 18.4161 37.2449 17.9531C37.0906 17.593 36.9363 17.2329 36.7305 16.9242C36.4218 17.9017 36.3704 18.9305 36.4218 20.0108C36.5247 21.194 36.7819 22.4801 37.0392 23.7662C37.4507 23.7148 37.8622 23.6633 38.2738 23.6633ZM40.5373 23.6119C40.6402 22.7888 40.7431 21.9657 40.8974 21.194C41.1546 19.3421 41.4118 17.5416 41.2575 15.741C41.1546 14.3521 40.6402 13.0145 40.1258 11.677C39.92 11.214 39.7656 10.751 39.5599 10.288C39.4055 10.751 39.1998 11.214 39.0454 11.677C38.4796 13.0145 37.9651 14.3521 37.8622 15.741C37.7594 17.5416 38.0166 19.3421 38.3252 21.1426C38.4796 21.9657 38.6339 22.7888 38.7368 23.6119C38.994 23.6119 39.3027 23.6119 39.5599 23.6119C39.92 23.6119 40.2286 23.6119 40.5373 23.6119ZM36.2675 22.2229C36.1646 21.5541 35.9588 20.9368 35.7531 20.4224C35.5987 20.0623 35.393 19.7536 35.2386 19.4964C35.1357 19.908 35.0843 20.3195 35.0329 20.7825C34.9814 21.3484 35.0329 21.9142 35.0843 22.4801C35.2901 22.9946 35.4444 23.509 35.5987 24.0234C35.9074 23.972 36.2675 23.9205 36.6276 23.8691C36.4733 23.3032 36.3704 22.7373 36.2675 22.2229ZM35.1872 24.1263C35.0329 23.6119 34.8785 23.0974 34.6728 22.6345C34.467 22.2229 34.2098 21.8114 33.8497 21.5027C33.8497 21.9657 33.9011 22.4801 34.004 22.9431C34.1069 23.4061 34.2612 23.8691 34.467 24.3321C34.7242 24.2806 34.93 24.1778 35.1872 24.1263ZM34.0554 24.4864C33.8497 24.1263 33.6439 23.8177 33.4381 23.509C33.2323 23.2518 32.9751 22.9946 32.7179 22.8402C32.7179 23.1489 32.8208 23.4575 32.8722 23.7662C32.9751 24.0749 33.1295 24.435 33.2323 24.7436C33.541 24.6407 33.7982 24.5379 34.0554 24.4864ZM32.8208 24.898H32.7693C32.5121 24.4864 32.2549 24.0749 31.8948 23.7662C31.8948 23.972 31.9463 24.1778 31.9977 24.3835C32.0491 24.6407 32.152 24.898 32.2549 25.1552C32.4607 25.0523 32.615 25.0008 32.8208 24.898ZM31.8434 25.361C31.689 25.1552 31.5862 25.0008 31.4318 24.7951C31.2775 24.6407 31.1746 24.4864 31.0203 24.3835C31.0203 24.5893 31.0203 24.7951 31.0717 25.0008C31.1746 25.2066 31.226 25.4124 31.3289 25.5667C31.4833 25.5153 31.689 25.4124 31.8434 25.361ZM30.9688 25.8239C30.7631 25.5667 30.6087 25.3095 30.3515 25.1037C30.3515 25.2581 30.403 25.4124 30.4544 25.5153C30.5058 25.6696 30.5573 25.8239 30.6087 25.9783C30.7116 25.9268 30.8145 25.8754 30.9688 25.8239ZM30.1457 26.2355C29.9914 26.0297 29.7856 25.7725 29.5284 25.6182C29.5799 25.9783 29.7342 26.2355 29.8371 26.4413C29.94 26.3898 30.0428 26.3384 30.1457 26.2355ZM29.477 26.6985C29.2198 26.4413 29.014 26.1326 28.7053 25.9783C28.7053 26.1326 28.7568 26.2869 28.8082 26.3898C28.8597 26.5956 28.9625 26.7499 29.1169 26.9557C29.2198 26.8528 29.3226 26.8014 29.477 26.6985ZM28.7053 27.2644C28.6024 27.11 28.4481 27.0071 28.3452 26.9043C28.2423 26.8528 28.1909 26.8014 28.088 26.7499C28.1394 26.8528 28.1394 26.9557 28.1909 27.11C28.2423 27.2644 28.2938 27.4187 28.3452 27.5216C28.4481 27.4187 28.6024 27.3158 28.7053 27.2644ZM27.9337 27.8817C27.8308 27.7273 27.6765 27.6245 27.5221 27.5216C27.4192 27.4701 27.2649 27.3672 27.162 27.3158C27.2135 27.4701 27.2649 27.6245 27.3163 27.7273C27.4192 27.8817 27.5221 28.036 27.625 28.1389C27.7279 28.036 27.8308 27.9846 27.9337 27.8817ZM27.2649 28.499C27.1106 28.3447 26.9562 28.2418 26.8019 28.1389C26.6476 28.0875 26.4933 27.9846 26.3389 27.9331C26.3904 28.0875 26.4933 28.2418 26.5961 28.3961C26.6476 28.5504 26.7505 28.7048 26.8534 28.8591C27.0077 28.7048 27.1106 28.6019 27.2649 28.499ZM26.5447 29.1678C26.3389 29.0134 26.1332 28.8591 25.9274 28.7562C25.8245 28.6533 25.6702 28.5504 25.4644 28.499C25.5673 28.7048 25.6702 28.9105 25.8245 29.0649C25.9274 29.2192 26.0817 29.3735 26.1846 29.5279C26.2875 29.425 26.4418 29.3221 26.5447 29.1678ZM25.8759 29.888C25.6187 29.7336 25.3615 29.5279 25.1043 29.3735C24.8985 29.2707 24.6413 29.1678 24.4355 29.0649C24.5384 29.2707 24.6413 29.4764 24.7956 29.6308C25.0014 29.888 25.2586 30.1452 25.5158 30.4024C25.6187 30.1966 25.773 30.0423 25.8759 29.888ZM25.2072 30.7625C24.8471 30.5053 24.487 30.2481 24.1269 30.0423C23.8696 29.8365 23.6124 29.7336 23.3038 29.5793C23.4581 29.888 23.6639 30.1966 23.9211 30.4539C24.1783 30.7625 24.487 31.0197 24.7956 31.2769C24.95 31.1226 25.0528 30.9168 25.2072 30.7625ZM24.5384 31.6885L24.4355 31.637C23.561 31.1226 22.6864 30.6082 21.7605 30.1966C21.8119 30.351 21.9148 30.4539 22.0177 30.6082C22.2235 30.8654 22.4807 31.1226 22.7893 31.3798C23.2523 31.637 23.7153 31.9457 24.1783 32.2544C24.2812 32.0486 24.4355 31.8943 24.5384 31.6885ZM23.9725 32.6145C23.3552 32.2029 22.6864 31.8428 22.0177 31.4827C21.4004 31.2255 20.7316 30.9683 20.0628 30.7625C20.1143 30.8654 20.2172 31.0197 20.32 31.1226C20.4744 31.3284 20.7316 31.5856 20.9374 31.7914C21.8119 32.2029 22.7379 32.7174 23.6639 33.1804C23.7668 33.026 23.8696 32.8202 23.9725 32.6145ZM23.4581 33.5919C22.2749 32.9231 21.1431 32.3058 20.0114 31.8943C18.9825 31.4827 18.0051 31.2255 16.9762 31.2255C17.2334 31.5342 17.4907 31.7914 17.7993 31.9972C18.2109 32.3573 18.6739 32.6145 19.1883 32.8717C19.7027 33.1289 20.2172 33.3861 20.7316 33.6433C21.4518 34.0549 22.172 34.415 22.9437 34.7237C23.098 34.3635 23.2523 33.952 23.4581 33.5919ZM18.0051 36.6271C17.4392 36.5242 16.9248 36.5242 16.3589 36.5756C15.9988 36.5756 15.6387 36.6271 15.2786 36.7299C16.1017 37.2958 17.0791 37.6559 18.1594 37.9131C19.2912 38.1704 20.5258 38.3247 21.8119 38.479C21.9148 38.0675 21.9662 37.7074 22.0691 37.2958C21.2975 37.1415 20.5258 37.0386 19.7027 36.8843C19.1369 36.7814 18.571 36.7299 18.0051 36.6271ZM21.7605 38.8906C20.5773 38.7877 19.3941 38.6334 18.3138 38.3761C18.0565 38.3761 17.7993 38.4276 17.5935 38.479C17.4907 38.5305 17.3878 38.5305 17.3363 38.5819C18.571 39.0449 19.6513 39.0449 20.6802 39.0963C21.0403 39.0963 21.4004 39.0963 21.709 39.0963C21.7605 39.0449 21.7605 38.942 21.7605 38.8906ZM22.7893 35.1352C22.0177 34.7751 21.2975 34.415 20.5258 34.0549C18.9311 33.2318 17.2849 32.4087 15.5358 31.9972C14.1468 31.637 12.7064 31.7914 11.3175 31.8943C10.803 31.8943 10.2886 31.9457 9.77416 31.9972C10.1857 32.3058 10.5972 32.6145 10.9574 32.9231C12.0891 33.7977 13.2209 34.6722 14.5069 35.2381C16.1531 35.9069 18.0051 36.1641 19.8056 36.4727C20.5773 36.5756 21.4004 36.7299 22.172 36.8843C22.3263 36.267 22.5321 35.7011 22.7893 35.1352ZM21.6061 40.6396C21.0917 40.6911 20.6287 40.7425 20.1143 40.6911C19.8571 40.7425 19.5998 40.794 19.3426 40.8969C19.2912 40.9483 19.1883 40.9997 19.0854 40.9997C19.497 41.1541 19.9085 41.257 20.2686 41.3084C20.7316 41.3599 21.1431 41.4113 21.5547 41.4113C21.5547 41.1541 21.5547 40.8969 21.6061 40.6396ZM21.6576 39.5593C21.0403 39.5593 20.4229 39.5593 19.8056 39.6108C19.2912 39.6622 18.8282 39.7651 18.3652 39.868C18.8282 40.0738 19.3426 40.1767 19.8571 40.2281C20.4229 40.2795 21.0403 40.2795 21.6061 40.2281C21.6061 40.0223 21.6576 39.7651 21.6576 39.5593ZM24.95 58.2333C25.3615 57.8217 25.8245 57.4102 26.236 56.9986C26.8019 56.4842 27.4192 55.9698 27.9337 55.4039C27.625 55.1467 27.3163 54.838 27.0077 54.5294C26.0303 55.4039 25.1043 56.227 24.3326 57.0501C23.6124 57.8732 22.9951 58.7477 22.635 59.6737C22.9951 59.5708 23.3552 59.365 23.6639 59.2107C24.1269 58.9535 24.5384 58.5934 24.95 58.2333ZM26.699 54.2207C26.5447 54.0664 26.3904 53.912 26.236 53.7577C25.5673 54.3236 24.95 54.838 24.3841 55.4553C23.8182 55.9698 23.3552 56.4842 22.9437 57.0501C23.0465 57.0501 23.2009 56.9986 23.3552 56.9472C23.6124 56.8958 23.9211 56.7414 24.1783 56.5871C24.95 55.764 25.8245 55.0438 26.699 54.2207ZM25.9274 53.3976C25.8245 53.2947 25.7216 53.1918 25.6187 53.0375C25.5158 53.1404 25.3615 53.2433 25.2586 53.3462C24.8471 53.6548 24.487 53.9635 24.1783 54.3236C23.7668 54.6837 23.4581 55.0952 23.1494 55.4553C23.2523 55.4553 23.3552 55.4553 23.4067 55.4039C23.6639 55.3525 23.8696 55.2496 24.1269 55.0952C24.6927 54.5294 25.3101 53.9635 25.9274 53.3976ZM25.3615 52.6774C25.2072 52.5231 25.1043 52.3173 24.95 52.163C24.5899 52.4202 24.2297 52.7288 23.9211 53.0375C23.6124 53.2947 23.4067 53.5519 23.2009 53.8092C23.5095 53.7577 23.8696 53.6034 24.1783 53.449C24.4355 53.2947 24.7442 53.1404 25.0014 52.9861C25.1043 52.8832 25.2072 52.7803 25.3615 52.6774ZM24.6927 51.8029C24.5899 51.5971 24.4355 51.3913 24.3326 51.237C24.2812 51.237 24.2297 51.2884 24.1783 51.2884C23.8696 51.4942 23.6639 51.7 23.4067 51.9057C23.2009 52.1115 23.0465 52.3173 22.8408 52.5745C23.1494 52.5231 23.4067 52.4716 23.7153 52.3173C24.024 52.2144 24.3841 52.0086 24.6927 51.8029ZM24.0754 50.8254C24.024 50.7225 23.9211 50.5682 23.8182 50.4139C23.6124 50.5682 23.3552 50.7225 23.1494 50.8769C22.9951 51.0312 22.8922 51.1855 22.7379 51.3399C22.9437 51.3399 23.1494 51.2884 23.3552 51.237C23.561 51.1341 23.7153 51.0827 23.9211 50.9283C23.9725 50.9283 24.024 50.8769 24.0754 50.8254ZM23.6124 50.0023C23.5095 49.7451 23.3552 49.5394 23.2523 49.2821C23.0465 49.385 22.8408 49.5394 22.6864 49.6937C22.5836 49.848 22.4292 50.0023 22.3263 50.1567C22.5836 50.1567 22.7893 50.1567 22.9951 50.1052C23.2009 50.1052 23.4067 50.0538 23.6124 50.0023ZM23.0465 48.8191C22.9951 48.6648 22.8922 48.5105 22.8408 48.3047C22.6864 48.4076 22.5321 48.5105 22.3778 48.6648C22.2749 48.7163 22.172 48.8191 22.0691 48.922C22.2235 48.922 22.4292 48.922 22.5836 48.922C22.7379 48.922 22.8922 48.8706 23.0465 48.8191ZM22.6864 47.8932C22.5836 47.6874 22.5321 47.4816 22.4292 47.2244C22.3263 47.3273 22.2235 47.4302 22.0691 47.4816C21.9662 47.5845 21.8634 47.7388 21.709 47.8417C21.8634 47.8932 22.0691 47.9446 22.2235 47.9446C22.3778 47.9446 22.5321 47.9446 22.6864 47.8932ZM22.3263 46.7614C22.2235 46.6071 22.172 46.4013 22.1206 46.1955C22.0177 46.2984 21.8634 46.3499 21.7605 46.4527C21.6061 46.5042 21.5032 46.6071 21.4004 46.71C21.5547 46.7614 21.709 46.8129 21.8634 46.8129C22.0177 46.8129 22.172 46.8129 22.3263 46.7614ZM22.0177 45.7325C21.9662 45.5782 21.9662 45.3724 21.9148 45.2181C21.7605 45.2695 21.6061 45.3724 21.4518 45.4753C21.2975 45.5268 21.1431 45.6297 21.0403 45.7325C21.1946 45.784 21.3489 45.784 21.5032 45.784C21.709 45.8354 21.8634 45.784 22.0177 45.7325ZM21.8119 44.7037C21.8119 44.5493 21.7605 44.395 21.7605 44.1892C21.5547 44.2921 21.4004 44.3436 21.1946 44.4465C21.0917 44.5493 20.9374 44.6008 20.8345 44.7037C20.9888 44.7551 21.1431 44.7551 21.2975 44.7551C21.4518 44.7551 21.6576 44.7551 21.8119 44.7037ZM21.6576 43.6748C21.6576 43.469 21.6061 43.2633 21.6061 43.0575C21.4004 43.1089 21.1431 43.2118 20.9374 43.2633C20.783 43.3661 20.6287 43.4176 20.4744 43.5205C20.6287 43.5719 20.8345 43.5719 20.9888 43.6234C21.1946 43.6234 21.4518 43.6748 21.6576 43.6748ZM21.6061 42.543C21.5547 42.3373 21.5547 42.1315 21.5547 41.8743C21.246 41.9257 20.8859 41.9772 20.5773 42.0801C20.32 42.1315 20.1143 42.1829 19.8571 42.2858C20.1143 42.3887 20.3715 42.4402 20.6287 42.4916C20.9374 42.543 21.246 42.543 21.6061 42.543ZM51.9063 29.3221C48.7682 26.1326 44.3956 24.2292 39.5599 24.2292C34.7756 24.2292 30.403 26.1326 27.2649 29.3221C24.1269 32.4601 22.172 36.8328 22.172 41.6171C22.172 46.4527 24.1269 50.774 27.2649 53.9635C30.403 57.1015 34.7756 59.0564 39.5599 59.0564C44.3956 59.0564 48.7682 57.1015 51.9063 53.9635C55.0443 50.774 56.9992 46.4527 56.9992 41.6171C56.9992 36.8328 55.0443 32.4601 51.9063 29.3221Z" fill="#FEFEFE"/>
<path fill-rule="evenodd" clip-rule="evenodd" d="M39.5599 27.9336C47.1221 27.9336 53.2953 34.1068 53.2953 41.6175C53.2953 49.1797 47.1221 55.3015 39.5599 55.3015C32.0492 55.3015 25.876 49.1797 25.876 41.6175C25.876 34.1068 32.0492 27.9336 39.5599 27.9336ZM39.5599 33.901C43.8297 33.901 47.3279 37.3477 47.3279 41.6175C47.3279 45.8873 43.8297 49.334 39.5599 49.334C35.3416 49.334 31.8434 45.8873 31.8434 41.6175C31.8434 37.3477 35.3416 33.901 39.5599 33.901ZM40.2287 29.3226L40.4345 29.1682L40.6402 29.0653L40.8974 28.9625L41.2061 28.911H41.4633H41.8234H42.1321L42.4407 28.9625L42.8009 29.0653L43.161 29.1682L43.5211 29.2711L43.8297 29.4255L44.1898 29.5798L44.4985 29.7341L44.8071 29.9399L45.0644 30.0942L45.3216 30.3L45.5788 30.5572L45.7846 30.763L45.9389 30.9688L46.0932 31.1745L46.1961 31.4317L46.2476 31.6375L46.299 31.8433L46.2476 32.0491L46.1961 32.2548L46.0418 32.4606L44.447 34.7241L44.2927 34.6212L44.1898 34.5183L44.0355 34.4155L43.7268 34.2611L43.3667 34.0554L43.0066 33.901C42.8523 33.7981 42.6465 33.7467 42.4407 33.6953C42.2864 33.5924 42.0806 33.5409 41.8749 33.4895C41.7205 33.438 41.5148 33.3866 41.3604 33.3352L41.0003 33.2323C40.846 33.2323 40.6402 33.1808 40.4859 33.1808L40.2287 33.1294H40.0744H39.9715L39.8171 33.1808H39.7657L39.7142 30.6087V30.2485L39.8171 29.9913L39.92 29.7341L40.0744 29.4769L40.2287 29.3226ZM47.3279 32.0491H47.5851L47.8423 32.1005L48.0995 32.152L48.3567 32.3063L48.614 32.4606L48.8712 32.6149L49.1284 32.8722L49.3342 33.0779L49.5914 33.3352L49.7972 33.6438L50.0029 33.9525L50.2087 34.2611L50.363 34.5698L50.5174 34.8785L50.6717 35.2386L50.7746 35.5472L50.8775 35.8559L50.9289 36.1645L50.9804 36.4732V36.7304V37.0391L50.9289 37.2448L50.8775 37.4506L50.7231 37.6564L50.6202 37.8107L50.4145 37.9136L50.2087 38.0165L47.5851 38.891L47.5336 38.7367L47.4822 38.5824L47.3279 38.2223L47.1735 37.9136L47.0192 37.5535L46.8134 37.1934C46.7106 37.0391 46.6077 36.8847 46.4533 36.7304C46.3504 36.5761 46.2476 36.3703 46.1447 36.216C45.9903 36.0617 45.8875 35.9588 45.7846 35.8044L45.5274 35.5472L45.3216 35.3414C45.1158 35.1357 44.91 34.9813 44.7043 34.8785L46.1447 32.7693L46.4019 32.5121L46.6077 32.3063L46.8649 32.2034L47.0707 32.1005L47.3279 32.0491ZM51.4948 38.428L51.7006 38.5824L51.8549 38.7881L52.0092 38.9939L52.1636 39.2511L52.2664 39.5084L52.3693 39.817L52.4208 40.1257L52.5237 40.4858V40.7944V41.1545V41.5146V41.9262L52.4722 42.2863L52.4208 42.595L52.3179 42.9551L52.215 43.3152L52.1121 43.6238L51.9578 43.881L51.8549 44.1383L51.7006 44.3955L51.4948 44.6013L51.3405 44.7556L51.1347 44.9099L50.9804 44.9614L50.7746 45.0128H50.5174L50.3116 44.9614L47.6365 44.0868L47.688 43.9325L47.7394 43.7782L47.7909 43.6238L47.8937 43.2637L47.9452 42.9036L47.9966 42.4921C47.9966 42.2863 48.0481 42.0805 48.0481 41.9262C48.0481 41.7204 48.0481 41.5146 48.0481 41.3089C48.0481 41.1031 48.0481 40.8973 48.0481 40.743L47.9966 40.3829L47.9452 40.0228C47.8937 39.7656 47.8423 39.4569 47.688 39.1997L50.1058 38.3252L50.4145 38.2737L50.7231 38.2223L51.0318 38.2737L51.2376 38.3252L51.4948 38.428ZM51.0832 46.0417L51.1861 46.2989V46.5561V46.8133V47.0705L51.0832 47.3792L50.9804 47.6879L50.8775 47.9965L50.7231 48.2537L50.5174 48.5624L50.363 48.8711L50.1058 49.1797L49.9 49.4369L49.6428 49.6941L49.3856 49.9514L49.1284 50.2086L48.8197 50.4144L48.5625 50.5687L48.3053 50.7745L47.9966 50.8773L47.7394 50.9802L47.4822 51.0317L47.2764 51.0831H47.0192L46.8134 51.0317L46.6077 50.9288L46.4533 50.8259L46.299 50.6201L44.6528 48.3566L44.8071 48.3052L44.91 48.2023L45.2187 47.9451L45.4759 47.6879L45.7331 47.4306C45.8875 47.2763 45.9903 47.122 46.1447 46.9676C46.2476 46.8133 46.4019 46.659 46.5048 46.5047C46.6077 46.3503 46.7106 46.196 46.8649 46.0417C46.9163 45.8873 47.0192 45.733 47.1221 45.5787L47.2764 45.27C47.4308 45.0128 47.5336 44.7041 47.5851 44.3955L50.0029 45.1671L50.363 45.27L50.6202 45.4243L50.826 45.6301L50.9804 45.8359L51.0832 46.0417ZM46.299 51.9577L46.1961 52.2149L46.0932 52.4206L45.9389 52.6264L45.7331 52.8322L45.5274 53.038L45.2701 53.2437L45.0129 53.3981L44.7043 53.5524L44.3442 53.7067L44.0355 53.8096L43.6754 53.9125L43.3153 54.0154L42.9552 54.0668L42.5951 54.1183L42.235 54.1697H41.9263H41.5662L41.2576 54.1183L40.9489 54.0668L40.6917 54.0154L40.4345 53.9125L40.2287 53.7582L40.0744 53.6553L39.92 53.501L39.8171 53.2952L39.7657 53.0894L39.7142 52.8322V50.0543H39.8686H40.0744H40.383L40.7946 50.0028L41.1547 49.9514C41.3604 49.8999 41.5662 49.8485 41.7205 49.797C41.9263 49.7456 42.1321 49.6941 42.3379 49.6427C42.4922 49.5913 42.698 49.5398 42.8523 49.4369C43.0581 49.3855 43.2124 49.334 43.3667 49.2312L43.6754 49.0768C43.9326 48.9739 44.1898 48.8196 44.3956 48.5624L45.9389 50.6201L46.1447 50.9288L46.2476 51.186L46.299 51.4432L46.3504 51.7004L46.299 51.9577ZM38.9426 53.9125L38.7368 54.0668L38.5311 54.1697L38.2738 54.2726L37.9652 54.3241L37.708 54.3755H37.3479L37.0392 54.3241L36.6791 54.2726L36.3704 54.2212L36.0103 54.1183L35.6502 53.964L35.3416 53.8611L34.9815 53.7067L34.6728 53.501L34.3641 53.3466L34.1069 53.1409L33.8497 52.9351L33.5925 52.7293L33.3867 52.5235L33.2324 52.2663L33.0781 52.0605L32.9752 51.8548L32.9237 51.649L32.8723 51.3918L32.9237 51.186L32.9752 51.0317L33.1295 50.8259L34.7242 48.5624L34.8786 48.6138L34.9815 48.7167L35.1358 48.8196L35.4444 49.0254L35.8046 49.1797L36.1647 49.3855L36.5248 49.5398C36.7305 49.5913 36.8849 49.6427 37.0906 49.7456C37.2964 49.797 37.4507 49.8485 37.6565 49.8999L38.0166 50.0028C38.1709 50.0028 38.3253 50.0543 38.5311 50.0543C38.7883 50.1057 39.0969 50.1571 39.4056 50.1057L39.457 52.6264L39.4056 52.9865L39.3541 53.2952L39.2513 53.5524L39.0969 53.7582L38.9426 53.9125ZM31.8434 51.186H31.5862H31.329L31.0718 51.0831L30.8145 50.9802L30.5573 50.8259L30.3001 50.6201L30.0429 50.4144L29.8371 50.1571L29.5799 49.8999L29.3741 49.6427L29.1684 49.334L28.9626 49.0254L28.8083 48.7167L28.6539 48.3566L28.4996 48.048L28.3967 47.7393L28.2938 47.3792L28.2424 47.0705L28.1909 46.7619V46.5047V46.2474L28.2424 45.9902L28.2938 45.7845L28.3967 45.6301L28.551 45.4758L28.7568 45.3215L28.9626 45.2186L31.5862 44.3955L31.6376 44.4984L31.6891 44.7041L31.8434 45.0128L31.9977 45.3729L32.1521 45.6816L32.3578 46.0417C32.4607 46.196 32.5636 46.4018 32.7179 46.5561C32.8208 46.7104 32.9237 46.8648 33.0266 47.0191L33.2838 47.3278C33.3867 47.4821 33.541 47.585 33.6439 47.7393L33.8497 47.9451L34.1069 48.1508L34.2098 48.2023L34.3127 48.2537L34.4156 48.3566H34.467L33.0266 50.4658L32.7694 50.723L32.5636 50.9288L32.3064 51.0831L32.1006 51.186H31.8434ZM27.6765 44.807L27.4707 44.6527L27.3164 44.4984L27.1621 44.2926L27.0077 44.0354L26.9048 43.7782L26.802 43.4695L26.6991 43.1094L26.6476 42.8007V42.4406V42.0805V41.7204V41.3603L26.6991 41.0002L26.7505 40.6401L26.8534 40.28L26.9563 39.9713L27.0592 39.6627L27.1621 39.354L27.3164 39.0968L27.4707 38.8396L27.6765 38.6853L27.8308 38.4795L28.0366 38.3766L28.1909 38.2737H28.3967H28.6025L28.8597 38.3252L31.5347 39.1483L31.4833 39.3026L31.4319 39.4569L31.3804 39.6112L31.2775 39.9713L31.2261 40.3829L31.1746 40.743C31.1746 40.9488 31.1232 41.1545 31.1232 41.3603V41.7719V42.132C31.1232 42.3377 31.1232 42.5435 31.1746 42.6978V43.058L31.2775 43.3666L31.329 43.6753L31.3804 43.7782V43.881L31.4319 43.9839L31.4833 44.0868L29.0655 44.9099L28.7568 45.0128H28.4481H28.1395L27.8823 44.9099L27.6765 44.807ZM27.9852 36.9876V36.7304V36.4732V36.1645L28.088 35.9073L28.1909 35.5987L28.2938 35.29L28.4481 34.9813L28.6025 34.6727L28.8083 34.364L29.0655 34.1068L29.2712 33.7981L29.5285 33.5409L29.7857 33.2837L30.0429 33.0779L30.3516 32.8722L30.6088 32.6664L30.866 32.5121L31.1746 32.3577L31.4319 32.2548L31.6891 32.2034H31.8949H32.1521L32.3578 32.2548L32.5122 32.3063L32.7179 32.4606L32.8723 32.6149L34.5185 34.8785L34.3641 34.9813L34.2612 35.0842L34.1069 35.1871L33.8497 35.4443L33.5925 35.7015L33.3353 36.0102C33.2324 36.1645 33.0781 36.3189 32.9752 36.4732C32.8723 36.6275 32.7694 36.7819 32.6151 36.9362C32.5122 37.142 32.4093 37.2963 32.3578 37.4506C32.255 37.605 32.1521 37.7593 32.0492 37.9136C31.9977 38.0165 31.9463 38.1708 31.8434 38.3252L31.7405 38.5824C31.6891 38.6853 31.6891 38.7881 31.6376 38.891L29.1684 38.1194L28.8083 37.9651L28.551 37.8107L28.3453 37.6564L28.1909 37.4506L28.088 37.1934L27.9852 36.9876ZM32.8723 31.2774L32.9237 31.0716L33.0781 30.8144L33.2324 30.6087L33.4382 30.4029L33.6439 30.1971L33.9011 30.0428L34.1584 29.837L34.467 29.6827L34.8271 29.5798L35.1358 29.4255L35.4959 29.3226L35.856 29.2711L36.2161 29.1682L36.5762 29.1168H36.9363L37.245 29.0653L37.6051 29.1168H37.9137L38.2224 29.1682L38.4796 29.2711L38.7368 29.374L38.9426 29.4769L39.0969 29.6312L39.2513 29.7856L39.3541 29.9399L39.4056 30.1457L39.457 30.4029V33.1808H39.3027H39.0969L38.7883 33.2323H38.3767L38.0166 33.3352C37.8108 33.3352 37.6051 33.3866 37.3993 33.438C37.245 33.4895 37.0392 33.5409 36.8334 33.5924C36.6791 33.6953 36.4733 33.7467 36.319 33.7981L35.9589 33.9525C35.8046 34.0039 35.6502 34.1068 35.4959 34.1582C35.2387 34.3126 34.9815 34.4669 34.7757 34.6727L33.2324 32.6664L33.0266 32.3577L32.9237 32.0491L32.8723 31.7918L32.8208 31.5346L32.8723 31.2774Z" fill="#FEFEFE"/>
<path d="M29.8887 35.1364L30.6603 33.9017L30.8147 33.6445L31.0719 33.8503C31.2262 33.9532 31.3805 34.1075 31.5349 34.2104C31.8435 34.4676 32.1522 34.6734 32.4608 34.9306C32.6152 35.0849 32.6666 35.4451 32.6152 35.7537C32.5637 36.0624 32.4608 36.371 32.3065 36.5768H32.2551C32.0493 36.7826 31.7921 37.0398 31.5349 37.1427C31.1748 37.297 30.8147 37.3485 30.4545 37.2456L30.6603 36.6797C30.8661 36.7826 31.0719 36.7311 31.2776 36.6282C31.4834 36.5254 31.6892 36.371 31.895 36.1653C31.9464 36.0624 32.0493 35.8566 32.0493 35.7023C32.0493 35.4965 32.0493 35.3936 32.0493 35.3422C31.7406 35.0849 31.4834 34.8792 31.2262 34.6734C31.1233 34.622 31.0204 34.5705 30.969 34.4676L30.3517 35.4451L29.8887 35.1364Z" fill="#FEFEFE"/>
<path d="M28.4481 42.905C28.911 42.905 29.374 42.905 29.837 42.8535C29.837 42.6992 29.837 42.5449 29.837 42.442C29.7856 41.979 29.7856 41.516 29.7341 41.053C29.7341 40.9501 29.6313 40.7443 29.4769 40.59C29.3226 40.4871 29.1683 40.3842 29.0139 40.3842C28.911 40.3842 28.7567 40.4357 28.6538 40.5386C28.4995 40.6929 28.3966 40.8987 28.3452 41.1044C28.2937 41.516 28.2423 41.8247 28.2937 42.1333C28.3452 42.3905 28.3966 42.6477 28.4481 42.905ZM29.9399 43.4194C29.374 43.4708 28.8082 43.5223 28.2423 43.4708L28.088 43.4194L27.9851 43.2651C27.8822 42.905 27.7793 42.5963 27.7279 42.1848C27.6764 41.8247 27.7279 41.4645 27.7793 41.0016C27.8307 40.6929 27.9851 40.3842 28.2423 40.1785C28.4481 39.9212 28.7053 39.8184 29.0139 39.8184C29.3226 39.8184 29.6313 39.9727 29.8885 40.1785C30.1457 40.4357 30.3 40.7443 30.3515 41.053C30.3515 41.4645 30.3515 41.9275 30.4029 42.3905C30.4029 42.6477 30.4029 42.8535 30.4029 43.1107L30.4544 43.368H30.1457C29.7856 43.4194 29.9914 43.4194 29.9399 43.4194Z" fill="#FEFEFE"/>
<path d="M34.8272 33.49C34.7758 33.3871 34.7244 33.3356 34.6729 33.2328C34.5186 33.027 34.3643 32.8212 34.2614 32.5125C34.107 32.0496 34.1585 31.5866 34.3643 31.2265C34.6215 30.8149 35.033 30.5577 35.496 30.3519C35.5989 30.3519 35.7018 30.3005 35.8047 30.249C36.2677 30.1462 36.7306 30.1462 37.0908 30.249C37.4509 30.3519 37.7595 30.6091 37.9138 31.0721C37.9653 31.1236 37.9653 31.175 37.9653 31.175C38.0167 31.4322 38.0682 31.7409 38.0682 32.0496C38.0682 32.1524 38.1196 32.2553 38.1196 32.3582L37.5537 32.4097C37.5537 32.3068 37.5023 32.2039 37.5023 32.0496C37.5023 31.8952 37.5023 31.7409 37.4509 31.5866C36.9879 31.6895 36.5763 31.7923 36.1133 31.9467C35.7018 32.101 35.2902 32.3068 34.8787 32.564C34.9301 32.6669 35.033 32.7698 35.1359 32.9241C35.1873 32.9755 35.2388 33.0784 35.2902 33.1813L34.8272 33.49ZM34.8787 31.5351C34.7758 31.6895 34.7244 31.8438 34.7244 31.9981C35.1359 31.7923 35.496 31.5866 35.959 31.4322C36.3705 31.2779 36.8335 31.1236 37.2965 31.0721C37.1936 30.9178 37.0393 30.8149 36.885 30.7635C36.6792 30.712 36.3191 30.712 35.959 30.8149C35.8561 30.8664 35.7532 30.8664 35.7018 30.9178C35.3417 31.0207 35.033 31.2265 34.8787 31.5351Z" fill="#FEFEFE"/>
<path d="M44.8073 31.2264C44.8587 31.638 44.8587 31.9981 44.7558 32.3582C44.7044 32.6669 44.5501 33.027 44.2928 33.3356L43.8298 33.027C43.9842 32.8212 44.0871 32.6154 44.1385 32.4096C43.7784 32.1524 43.3669 31.9981 42.9553 31.8952C42.5952 31.7923 42.1837 31.7409 41.7721 31.6894C41.7207 31.8952 41.7207 32.101 41.7207 32.3068L41.1548 32.3582C41.1033 31.9981 41.1548 31.638 41.3091 31.2779C41.412 30.9178 41.6178 30.6091 41.9264 30.249L42.338 30.6606C42.1837 30.8149 42.0808 30.9692 41.9779 31.1236C42.3894 31.175 42.7495 31.2264 43.1096 31.3293C43.5212 31.4322 43.8813 31.5866 44.2414 31.7923C44.2928 31.638 44.2414 31.4837 44.2414 31.3293L44.8073 31.2264Z" fill="#FEFEFE"/>
<path d="M46.0417 34.931C46.0932 34.5709 46.299 34.2622 46.5047 34.005C46.762 33.7478 47.0706 33.5934 47.4307 33.4906C47.7394 33.4391 48.048 33.5934 48.2538 33.7478C48.511 33.9535 48.7168 34.2622 48.7682 34.5194C48.8197 34.6738 48.7682 34.8281 48.7168 34.9824C48.8711 34.9824 48.974 34.9824 49.0769 35.0339C49.1284 35.0853 49.1284 35.0853 49.1284 35.0853C49.3856 35.2396 49.5913 35.4454 49.6428 35.7026C49.6942 35.9598 49.6942 36.2685 49.5913 36.4743C49.5913 36.5257 49.5399 36.5257 49.5399 36.5257C49.3856 36.8344 49.0769 37.0916 48.7682 37.2459C48.4596 37.4003 48.048 37.4517 47.6879 37.4003L47.7908 36.8344C47.9966 36.8858 48.3053 36.8344 48.5625 36.7315C48.7682 36.6286 48.974 36.4743 49.0769 36.2685C49.1284 36.1142 49.1284 36.0113 49.0769 35.857C49.0769 35.7541 48.974 35.6512 48.8711 35.5997C48.8711 35.5997 48.8711 35.5483 48.8197 35.5483C48.7682 35.5483 48.7168 35.5483 48.6139 35.4969C48.511 35.4969 48.4081 35.4969 48.3053 35.5483L47.7908 35.5997L47.9966 35.1367C48.048 35.0339 48.048 34.9824 48.0995 34.931C48.1509 34.8281 48.2538 34.6738 48.2024 34.6223C48.2024 34.5194 48.048 34.3137 47.8937 34.2108C47.7908 34.1079 47.6365 34.0564 47.5336 34.0564C47.3278 34.1079 47.1221 34.2108 46.9163 34.4165C46.762 34.5709 46.6076 34.8281 46.5562 35.0339L46.0417 34.931Z" fill="#FEFEFE"/>
<path d="M48.8713 39.8692H48.9228C49.4372 39.7663 50.106 39.612 50.6204 39.9206C50.9291 40.1264 51.1348 40.3836 51.3406 40.6408C51.495 40.9495 51.5978 41.2582 51.5978 41.6183C51.5464 41.9784 51.495 42.3385 51.3406 42.6471C51.1863 42.9043 50.9805 43.1616 50.7233 43.3159C50.2089 43.6246 49.5401 43.4702 49.0257 43.3673C48.9742 43.3673 48.9742 43.3673 48.8713 43.3159L48.9742 42.75C49.0257 42.75 49.0771 42.8015 49.18 42.8015C49.2829 42.8015 49.3858 42.8529 49.4887 42.8529C49.5401 42.4414 49.5401 42.0298 49.5915 41.6183C49.5915 41.2067 49.5915 40.7437 49.5401 40.3322C49.3858 40.3322 49.18 40.3836 49.0257 40.4351H48.9742L48.8713 39.8692ZM50.3118 40.4351C50.2603 40.3836 50.2089 40.3836 50.106 40.3322C50.1574 40.7952 50.1574 41.2067 50.1574 41.6183C50.1574 42.0813 50.106 42.4928 50.0545 42.9558C50.1574 42.9558 50.3118 42.9043 50.4146 42.8529C50.6204 42.75 50.7233 42.5442 50.8262 42.3899C50.9291 42.1327 50.9805 41.8755 50.9805 41.6183C51.032 41.361 50.9291 41.1553 50.8262 40.9495C50.7233 40.7437 50.5175 40.538 50.3118 40.4351Z" fill="#FEFEFE"/>
<path d="M47.7393 45.9385C48.048 46.0928 48.3566 46.2472 48.6138 46.4015C48.9225 46.5558 49.2312 46.7102 49.5398 46.9159L49.797 47.0703L49.6427 47.3275L49.5398 47.5333C49.0254 48.4592 48.0994 50.1054 46.8133 49.4367C45.9388 48.9737 46.0931 48.202 46.4532 47.4304C46.659 47.1217 46.8648 46.813 47.0191 46.5044C47.1734 46.3501 47.2763 46.1443 47.3792 46.0414L47.4821 45.7842L47.7393 45.9385ZM48.3566 46.9159C48.1508 46.813 47.9451 46.7102 47.6878 46.5558C47.6364 46.6587 47.585 46.7616 47.5335 46.8645C47.3277 47.1217 47.122 47.4304 46.9676 47.6876C46.7104 48.202 46.6075 48.7165 47.122 48.9222C47.8422 49.3338 48.5624 48.0477 49.0254 47.276C48.7682 47.1732 48.5624 47.0188 48.3566 46.9159Z" fill="#FEFEFE"/>
<path d="M41.6692 50.7225C41.6692 50.9798 41.6692 51.1855 41.6692 51.4427C42.0807 51.3913 42.4408 51.2884 42.8524 51.1341C43.3154 51.0312 43.7269 50.8254 44.1899 50.6197C44.087 50.4139 43.9841 50.2596 43.8813 50.1052L44.2928 49.7451C44.55 50.0023 44.7558 50.3624 44.9101 50.774C44.9616 51.0312 45.013 51.3399 44.9616 51.6485C44.9101 51.9057 44.7558 52.2144 44.4986 52.4716C44.2928 52.6259 43.9841 52.7803 43.624 52.9346C42.4408 53.2947 41.7721 53.0375 41.412 52.4716C41.1033 51.9572 41.0519 51.2884 41.1033 50.7225H41.6692ZM41.8235 52.0086C41.8235 52.0601 41.875 52.1115 41.9264 52.163C42.1322 52.4716 42.5437 52.6774 43.4183 52.3687C43.7269 52.2658 43.9327 52.163 44.087 52.0086C44.2928 51.8543 44.3443 51.7 44.3957 51.5456C44.4471 51.3913 44.3957 51.2884 44.3957 51.1341C43.9327 51.3913 43.4697 51.5456 43.0582 51.7C42.6466 51.8543 42.2351 51.9057 41.8235 52.0086Z" fill="#FEFEFE"/>
<path d="M35.2386 51.9072C35.29 51.9072 35.29 51.9586 35.3415 52.0101C35.6501 52.3187 35.9588 52.4731 36.2675 52.4731C36.5761 52.5245 36.8848 52.4216 37.1934 52.1644C37.2449 52.113 37.2449 52.113 37.2963 52.0615C37.2963 52.0615 37.3478 52.0101 37.3478 51.9586C37.4507 51.8557 37.4507 51.7014 37.3992 51.5471C37.3992 51.3413 37.2449 51.187 37.0905 50.9812C36.9877 50.8783 36.8848 50.7754 36.7304 50.724C36.3189 50.4668 36.0102 50.3639 35.7016 50.4153C35.4958 50.4668 35.29 50.6211 35.0843 50.8783C35.2386 50.9812 35.4444 51.0841 35.5987 51.187C35.8559 51.2899 36.1646 51.3927 36.4732 51.4442L36.3703 52.0101C36.0102 51.9072 35.7016 51.8043 35.3929 51.7014C35.0843 51.5471 34.7756 51.3413 34.4669 51.1355L34.2097 50.9812L34.4155 50.724C34.7756 50.261 35.1871 49.9523 35.5987 49.9009C36.0102 49.798 36.4732 49.9009 37.0391 50.2095C37.1934 50.3124 37.3478 50.4668 37.4507 50.5697C37.7593 50.8269 37.9136 51.1355 37.9651 51.4442C38.068 51.7528 38.0165 52.0101 37.8622 52.2673C37.8108 52.3702 37.7593 52.4216 37.7079 52.4731C37.6564 52.5245 37.605 52.5245 37.5535 52.5759C37.142 52.936 36.679 53.0904 36.216 53.0389C35.8045 53.0389 35.3415 52.7817 34.9299 52.4216C34.9299 52.3702 34.8785 52.3187 34.827 52.2673L35.2386 51.9072Z" fill="#FEFEFE"/>
<path d="M31.3804 46.2986C31.1232 46.4015 30.9174 46.5044 30.7631 46.6073C30.9174 47.0188 31.1747 47.4304 31.4319 47.7905C31.6891 48.1506 31.9463 48.4592 32.3064 48.7679C32.4093 48.6136 32.5636 48.4592 32.6665 48.2535L33.1809 48.5621C32.8723 49.0251 32.5636 49.3338 32.255 49.5395C31.9977 49.7453 31.7405 49.8482 31.4319 49.8482C31.1747 49.8482 30.866 49.7968 30.6088 49.591C30.3516 49.4367 30.0429 49.1794 29.7857 48.7679C29.6828 48.6136 29.6314 48.5107 29.5799 48.3563C29.3741 47.9448 29.3741 47.5333 29.5285 47.1732C29.6828 46.813 29.94 46.4529 30.3516 46.1957C30.6088 46.0414 30.866 45.8871 31.1747 45.7842L31.3804 46.2986ZM30.3001 46.9674C30.1972 47.1217 30.0943 47.2246 30.0429 47.3789C29.9915 47.6361 29.9915 47.8934 30.0943 48.1506C30.1458 48.2535 30.1972 48.3563 30.2487 48.4592C30.4544 48.7679 30.7117 48.9737 30.9174 49.128C31.0718 49.2309 31.2775 49.2823 31.4319 49.2823C31.5862 49.2823 31.7405 49.2309 31.8434 49.128C31.5348 48.8193 31.2261 48.4592 30.9689 48.0991C30.7117 47.739 30.5059 47.3789 30.3001 46.9674Z" fill="#FEFEFE"/>
</svg>
