<svg width="281" height="64" viewBox="0 0 281 64" fill="none" xmlns="http://www.w3.org/2000/svg">
<path d="M74.0683 35.4191C73.6213 39.5509 70 38.8928 70 38.8928L70.3234 40.6533H82.9383L83.5192 38.9648C79.6322 39.08 80.7219 36.0772 80.7219 36.0772C80.7219 36.0772 83.9106 19.4407 83.9353 19.3687C84.4297 16.8349 87.7606 17.4108 87.7606 17.4108L87.4125 15.5659H74.8552L74.159 17.3881C74.159 17.3881 77.564 16.9932 77.1582 19.7266C77.15 19.7554 74.0333 35.635 74.0333 35.635" fill="#677489"/>
<path d="M93.1035 22.8961L93.5505 20.6996L85.1069 21.804L84.8597 23.1717C84.8597 23.1717 87.7168 22.4539 86.7281 26.2588L84.561 37.3176H90.2732L92.5638 25.7179C92.5638 25.7179 92.7719 24.0581 95.0048 23.9882C95.0048 23.9882 97.4747 24.0273 96.6795 27.4414L94.6794 37.3525L103.137 36.3016L103.36 34.9812C103.36 34.9812 100.392 35.5118 101.283 32.8443L102.653 25.5102C102.653 25.5102 103.343 21.3289 100.653 20.6749C100.653 20.6749 97.623 19.3956 93.1035 22.8961Z" fill="#677489"/>
<path d="M111.885 37.43C111.885 37.43 107.337 38.1457 105.345 36.1877C105.345 36.1877 101.712 33.4235 105.22 26.6571C108.728 19.8926 116.504 20.7873 116.504 20.7873L116.912 18.6442C116.912 18.6442 117.299 16.6863 113.997 17.0421L114.452 15.59L123.427 14.4486L119.773 32.9834C119.773 32.9834 118.972 35.2684 122.663 35.0072L122.432 36.2741L113.278 37.4588L116.114 22.8933C116.114 22.8933 112.893 22.0563 110.938 26.7702C110.938 26.7702 107.312 35.4699 112.489 36.0335L112.275 37.3148L111.885 37.43Z" fill="#677489"/>
<path d="M134.72 29.8466C133.373 37.0306 130.355 35.9591 130.355 35.9591C130.355 35.9591 127.647 35.6341 129.161 28.3391C130.656 21.1983 133.243 22.1608 133.243 22.1608C134.576 22.2431 135.874 23.872 134.72 29.8466ZM133.011 20.2131C127.949 20.1823 123.339 24.127 122.721 29.0445C122.103 33.9518 125.702 37.95 130.769 37.9726C135.835 37.9931 140.447 34.0361 141.061 29.1227C141.677 24.2216 138.084 20.2337 133.011 20.2131Z" fill="#677489"/>
<path d="M163.752 29.8466C162.382 37.0306 159.381 35.9591 159.381 35.9591C159.381 35.9591 156.668 35.6341 158.182 28.3391C159.665 21.1983 162.267 22.1608 162.267 22.1608C163.602 22.2431 164.898 23.872 163.752 29.8466ZM162.036 20.2131C156.967 20.1823 152.361 24.127 151.741 29.0445C151.127 33.9518 154.732 37.95 159.791 37.9726C164.867 37.9931 169.481 34.0361 170.089 29.1227C170.711 24.2216 167.108 20.2337 162.036 20.2131Z" fill="#677489"/>
<path d="M183.715 29.8466C182.345 37.0306 179.342 35.9591 179.342 35.9591C179.342 35.9591 176.637 35.6341 178.149 28.3391C179.636 21.1983 182.232 22.1608 182.232 22.1608C183.565 22.2431 184.854 23.872 183.715 29.8466ZM181.999 20.2131C176.93 20.1823 172.32 24.127 171.708 29.0445C171.092 33.9518 174.693 37.95 179.762 37.9726C184.825 37.9931 189.435 34.0361 190.049 29.1227C190.669 24.2216 187.069 20.2337 181.999 20.2131Z" fill="#677489"/>
<path d="M150.36 22.7512C150.36 22.7512 150.455 23.1728 148.63 31.5518C146.811 39.9163 144.945 42.374 144.945 42.374C140.388 50.8311 133.409 49.7205 133.409 49.7205C130.031 49.7205 127.083 46.8823 127.083 44.0338C127.083 41.103 129.767 38.9024 133.149 38.9024L140.141 38.8941C140.141 38.8941 140.262 38.8365 139.7 40.667H133.001C130.669 40.667 129.25 42.7422 129.25 44.2127C129.25 45.9609 131.304 47.8304 133.366 47.8304C133.366 47.8304 135.397 48.0381 136.855 47.3574C139.414 46.1563 140.779 42.4296 140.779 42.4296C141.636 40.6896 142.907 34.1021 142.878 34.1946C142.878 34.1946 143.624 31.0335 144.794 22.8417H144.5H141.731L142.213 20.9413C144.442 20.6184 145.299 19.1664 145.299 19.1664C145.299 19.1664 147.892 15.5117 149.586 14.615C153.52 12.5583 156.546 16.3179 156.546 16.3179L152.591 19.8184C151.256 18.4178 150.737 18.0682 150.737 18.0682C149.439 16.8136 148.434 18.2738 148.434 18.2738C147.474 20.9187 150.737 20.7953 150.737 20.7953H154.501L153.992 22.7512H150.36Z" fill="#677489"/>
<path d="M128.344 38.894H85.3187L84.7852 40.6895H126.408C126.408 40.6895 126.733 39.5521 128.344 38.894Z" fill="#677489"/>
<path d="M148.191 38.894H210.03L209.614 40.6895H147.551C147.551 40.6895 148.06 39.8771 148.191 38.894Z" fill="#677489"/>
<path d="M199.464 37.43C199.464 37.43 194.91 38.1457 192.908 36.1877C192.908 36.1877 189.286 33.4235 192.796 26.6571C196.3 19.8926 204.068 20.7873 204.068 20.7873L204.495 18.6442C204.495 18.6442 204.876 16.6863 201.57 17.0421L202.029 15.59L211 14.4486L207.348 32.9834C207.348 32.9834 206.546 35.2684 210.238 35.0072L210.011 36.2741L200.859 37.4588L203.687 22.8933C203.687 22.8933 200.47 22.0563 198.509 26.7702C198.509 26.7702 194.889 35.4699 200.07 36.0335L199.852 37.3148L199.464 37.43Z" fill="#677489"/>
</svg>
