<svg width="281" height="64" viewBox="0 0 281 64" fill="none" xmlns="http://www.w3.org/2000/svg">
<path d="M175.596 52.9909C175.469 52.9837 175.011 52.9532 174.578 52.923C167.785 52.4495 161.357 50.1155 156.153 46.2325C155.831 45.9924 155.511 45.7494 155.442 45.6925C155.373 45.6357 155.127 45.4322 154.894 45.2404C154.272 44.7263 153.239 43.7722 152.532 43.0584C151.414 41.9298 150.152 40.3607 149.221 38.9426C148.725 38.1888 148 36.9576 148 36.8712C148 36.8241 151.262 36.8875 151.764 36.9443C152.621 37.0414 153.107 37.1998 153.511 37.5134C153.758 37.7046 153.855 37.8088 154.189 38.2386C157.396 42.3693 162.153 45.5788 167.644 47.3169C170.058 48.0811 172.52 48.5359 175.289 48.7287C176.096 48.785 178.419 48.7851 179.245 48.7287C183.32 48.4516 186.917 47.5577 190.422 45.951C193.141 44.7043 195.596 43.0759 197.662 41.1472C198.939 39.9548 199.863 38.9166 200.873 37.5375C201.287 36.9731 201.648 36.6042 201.94 36.4464C202.574 36.1036 203.462 36.001 205.797 36.0003L207 36L206.973 36.0804C206.916 36.2545 206.102 37.7309 205.748 38.3018C204.233 40.7502 202.445 42.8306 200.101 44.8735C196.827 47.726 192.698 49.9966 188.29 51.3687C185.609 52.2031 182.846 52.7166 179.821 52.9425C179.307 52.9809 176.076 53.0178 175.596 52.9907V52.9909Z" fill="#677489"/>
<path d="M200 32.8214C200 32.3908 200.295 31.3455 200.602 30.6862C201.324 29.1349 202.541 28.2696 204.299 28.0579C204.878 27.9882 206.276 28.0325 207.428 28.1569C209.015 28.3284 210.165 28.295 210.785 28.0594C210.996 27.9793 211 27.9794 211 28.0645C211 28.1122 210.943 28.3482 210.873 28.5889C210.414 30.1716 209.546 31.3112 208.439 31.7826C207.471 32.195 206.517 32.264 204.384 32.076C203.401 31.9894 202.28 31.9889 201.8 32.075C201.172 32.1874 200.447 32.5231 200.152 32.8377L200 33V32.8214Z" fill="#677489"/>
<path d="M80.3576 20.4357C82.3953 20.1814 83.3312 19.2445 83.2568 17.5334C83.2092 16.4355 82.6893 15.8196 81.5446 15.5047C81.1173 15.3872 80.9423 15.3776 79.1346 15.3728L77.1854 15.3676L76.6768 17.8298C76.3971 19.1841 76.1673 20.3382 76.1661 20.3947C76.164 20.4903 76.29 20.4973 78.014 20.4973C79.0316 20.4973 80.0862 20.4695 80.3576 20.4357ZM69.0317 32.5594C69.0904 32.3155 73.3109 11.1015 73.3109 11.0504C73.3109 11.0227 75.3959 11 77.9468 11C81.8566 11 82.6797 11.0144 83.2016 11.092C86.2161 11.5401 87.803 13.7224 87.8078 17.4264C87.8104 19.4751 87.1708 21.1479 85.8126 22.6441C84.9135 23.6347 83.2846 24.5782 81.8408 24.9447C80.6599 25.2445 80.4604 25.2613 77.7527 25.2892C75.4214 25.3132 75.1757 25.3248 75.1504 25.4127C75.135 25.466 74.8025 27.1255 74.4114 29.1005L73.7003 32.6913H71.3501H69L69.0317 32.5594ZM191.275 31.9731C191.364 31.5459 191.599 30.3917 191.797 29.4083C191.995 28.4248 192.417 26.3433 192.734 24.7827C193.052 23.2221 193.312 21.936 193.312 21.9248C193.312 21.9135 192.814 21.9043 192.206 21.9043C191.597 21.9043 191.1 21.8827 191.1 21.8563C191.1 21.8299 191.232 21.243 191.393 20.5519C191.554 19.8609 191.714 19.1701 191.747 19.017L191.808 18.7385H192.901H193.994L194.116 18.1376C194.183 17.8071 194.398 16.7584 194.593 15.8073C194.789 14.8561 194.978 13.9393 195.012 13.77L195.075 13.4623H197.367C198.812 13.4623 199.659 13.4833 199.659 13.5192C199.659 13.5706 199.38 14.9402 198.812 17.6879C198.701 18.2224 198.611 18.6775 198.611 18.6992C198.611 18.7208 199.148 18.7385 199.805 18.7385H201L200.97 18.8704C200.953 18.943 200.807 19.6091 200.645 20.3507C200.484 21.0923 200.338 21.7452 200.321 21.8017C200.294 21.895 200.184 21.9043 199.102 21.9043C198.447 21.9043 197.912 21.924 197.912 21.9482C197.912 21.9932 196.985 26.6125 196.198 30.4915C195.956 31.6838 195.758 32.6797 195.758 32.7046C195.758 32.7295 194.713 32.7499 193.436 32.7499H191.114L191.275 31.9731ZM176.028 26.052C176.76 22.3681 177.387 19.2156 177.421 19.0463L177.483 18.7385H179.604C180.873 18.7385 181.725 18.7604 181.725 18.793C181.725 18.823 181.647 19.1985 181.551 19.6275C181.455 20.0565 181.376 20.4419 181.376 20.4839C181.376 20.5258 181.539 20.3849 181.738 20.1707C183.186 18.6124 185.302 18.0312 187.257 18.6551C188.975 19.2037 189.679 20.8417 189.3 23.4099C189.186 24.1767 188.967 25.2911 188.02 29.9066C187.503 32.4255 187.493 32.475 187.46 32.618L187.429 32.7499H185.129H182.829L182.859 32.618C182.876 32.5454 182.98 32.0376 183.09 31.4895C183.508 29.4107 184.241 25.8348 184.381 25.1873C184.57 24.3184 184.582 23.7185 184.419 23.3992C184.182 22.9375 183.812 22.7188 183.201 22.6789C182.035 22.6027 181.219 23.2866 180.799 24.6915C180.705 25.0068 179.589 30.419 179.207 32.4128L179.143 32.7499H176.92H174.696L176.028 26.052ZM152.827 29.1471C153.895 28.6552 154.711 26.7591 154.708 24.7812C154.706 23.4792 154.383 22.7345 153.646 22.3309C153.504 22.2532 153.321 22.2277 152.904 22.2272C152.425 22.2268 152.306 22.2477 152.017 22.3843C150.908 22.9076 150.225 24.5281 150.204 26.6822C150.196 27.6184 150.304 28.0976 150.64 28.608C151.093 29.2979 152.01 29.5238 152.827 29.1471ZM149.15 33.0402C147.054 32.7093 145.7 31.1523 145.304 28.6168C145.134 27.5298 145.233 25.7401 145.541 24.3467C145.878 22.8208 146.604 21.3368 147.485 20.3687C148.811 18.9134 150.514 18.2703 152.566 18.4496C154.031 18.5775 154.958 19.1461 155.474 20.2334C155.565 20.4269 155.641 20.6182 155.641 20.6585C155.641 20.6988 155.662 20.7318 155.688 20.7318C155.713 20.7318 155.818 20.2899 155.921 19.7498C156.023 19.2097 156.303 17.7258 156.543 16.4521C156.784 15.1785 157.008 13.9979 157.042 13.8287L157.105 13.5209H159.4C160.663 13.5209 161.696 13.5426 161.696 13.5692C161.696 13.6174 161.048 16.8812 158.981 27.2538L157.885 32.7499H155.657C153.83 32.7499 153.428 32.7357 153.428 32.6711C153.428 32.6278 153.507 32.2015 153.603 31.724C153.699 31.2464 153.777 30.8135 153.777 30.7621C153.777 30.7108 153.656 30.8849 153.508 31.1491C152.991 32.0714 152.357 32.6205 151.487 32.9015C151.098 33.027 150.874 33.0585 150.255 33.075C149.839 33.0861 149.342 33.0704 149.15 33.0402ZM121.259 33.2707C119.515 33.0156 118.12 32.2309 117.36 31.0777C116.909 30.3945 116.61 29.3309 116.642 28.5265L116.659 28.0892L118.844 28.0739L121.029 28.0585L121.094 28.4722C121.232 29.3535 121.527 29.6388 122.436 29.7682C123.25 29.8841 123.845 29.6843 124.148 29.1924C124.26 29.011 124.287 28.8887 124.287 28.5475C124.287 28.16 124.273 28.1118 124.112 27.9413C123.774 27.5828 123.412 27.465 121.603 27.1244C121.088 27.0274 120.485 26.8917 120.264 26.823C118.439 26.256 117.578 24.8774 117.788 22.8625C118.019 20.6582 119.179 19.1851 121.288 18.4184C122.134 18.1108 122.633 18.0282 123.852 17.9939C125.113 17.9585 125.733 18.0254 126.662 18.2968C128.657 18.8797 129.789 20.2841 129.789 22.1774V22.725H127.635H125.48V22.4007C125.48 21.6588 125.045 21.2573 124.138 21.1618C123.087 21.0512 122.233 21.9551 122.591 22.8002C122.765 23.2128 123.072 23.3717 123.966 23.5138C126.156 23.8615 127.357 24.3187 128.144 25.1045C128.837 25.7957 129.087 26.5043 129.089 27.7763C129.091 29.2987 128.628 30.5089 127.664 31.4963C126.761 32.4214 125.616 32.9894 124.145 33.2419C123.545 33.3449 121.88 33.3616 121.259 33.2707ZM137.533 29.3732C138.285 28.9613 138.891 27.8349 139.218 26.2425C139.59 24.4327 139.285 22.7313 138.503 22.2524C138.016 21.9544 137.328 21.9865 136.816 22.3311C135.861 22.9733 135.133 24.9311 135.121 26.8874C135.114 28.0187 135.318 28.7099 135.797 29.1777C136.249 29.6195 136.941 29.6974 137.533 29.3732ZM135.525 33.388C132.694 32.9729 130.853 31.0522 130.392 28.0306C130.267 27.2124 130.314 25.2724 130.479 24.4749C131.002 21.9362 132.353 19.9936 134.343 18.9194C135.874 18.0931 138.121 17.8355 139.919 18.2801C142.224 18.8502 143.711 20.5676 144.079 23.0843C144.44 25.5541 143.822 28.4632 142.524 30.4002C142.168 30.9314 141.427 31.7186 140.912 32.1128C140.431 32.4809 139.383 33.0029 138.814 33.1575C137.826 33.426 136.445 33.5229 135.525 33.388ZM170.399 23.5751C170.398 23.0589 170.379 22.9467 170.236 22.6371C169.933 21.9784 169.46 21.6297 168.68 21.4893C167.589 21.293 166.497 21.8052 165.857 22.8131C165.667 23.1119 165.306 23.9775 165.306 24.1343C165.306 24.1713 166.215 24.1864 167.853 24.1766L170.401 24.1613L170.399 23.5751ZM166.002 33.5102C164.993 33.3682 163.812 32.8753 163.084 32.2932C161.945 31.3818 161.225 30.1444 160.841 28.4409C160.696 27.7975 160.697 25.834 160.842 24.9821C161.196 22.9087 161.93 21.4088 163.21 20.14C165.418 17.9511 168.853 17.2943 171.387 18.5766C173.861 19.8285 175.018 22.9811 174.292 26.4917L174.198 26.946H169.606H165.015V27.2561C165.015 28.2354 165.585 29.2505 166.347 29.6273C166.65 29.7775 166.725 29.7892 167.373 29.7871C168.003 29.785 168.105 29.7695 168.404 29.63C168.722 29.4824 169.313 28.959 169.502 28.6593L169.586 28.5259L171.695 28.5421L173.804 28.5582L173.548 29.3282C173.252 30.217 173.088 30.564 172.69 31.1467C171.88 32.33 170.568 33.1155 168.887 33.4233C168.27 33.5361 166.553 33.5879 166.002 33.5102ZM96.5134 23.5737C96.5134 23.0293 96.4995 22.9578 96.3242 22.5992C95.9498 21.8337 95.3508 21.4794 94.4173 21.4714C93.436 21.463 92.6971 21.8241 92.1221 22.5928C91.8573 22.9469 91.5569 23.5859 91.4459 24.031L91.4058 24.1919L93.9596 24.1766L96.5134 24.1613V23.5737ZM92.1466 33.5097C90.583 33.3036 89.1951 32.5338 88.267 31.3578C87.3597 30.2083 86.9001 28.8648 86.8379 27.1805C86.6803 22.9186 88.6681 19.6337 92.1757 18.3596C93.9386 17.7193 95.9495 17.7914 97.445 18.5487C98.7914 19.2305 99.8462 20.5432 100.291 22.0912C100.688 23.472 100.718 25.0794 100.376 26.6382L100.309 26.946H95.7007H91.0927L91.1368 27.4004C91.2415 28.4773 91.7154 29.253 92.5124 29.6519C92.7545 29.7731 92.8697 29.7893 93.4857 29.7893C94.1631 29.7893 94.1964 29.7833 94.5758 29.5916C94.9405 29.4073 95.3851 29.0071 95.6114 28.6593L95.6983 28.5259L97.8074 28.5421L99.9164 28.5582L99.66 29.3295C99.3628 30.2232 99.2619 30.4386 98.8385 31.0841C97.766 32.719 95.7623 33.5927 93.1532 33.5632C92.7917 33.5591 92.3387 33.5351 92.1466 33.5097ZM109.463 29.0905C110.492 28.5593 111.114 27.1533 111.244 25.0669C111.323 23.7983 111.006 22.9842 110.274 22.5757C109.991 22.4178 109.915 22.4026 109.41 22.4032C108.696 22.4041 108.391 22.5335 107.907 23.0407C107.117 23.8695 106.679 25.3419 106.745 26.9525C106.813 28.6106 107.399 29.323 108.653 29.2729C109.055 29.2569 109.207 29.2226 109.463 29.0905ZM99.9336 37.9798C99.4707 37.9634 99.4539 37.9579 99.4834 37.8332C99.5003 37.762 100.352 33.4827 101.377 28.3237C102.402 23.1647 103.255 18.8975 103.272 18.8411C103.302 18.7456 103.466 18.7385 105.621 18.7385H107.938L107.743 19.7162C107.635 20.254 107.547 20.7196 107.547 20.7509C107.547 20.7822 107.685 20.5819 107.853 20.3057C108.264 19.6307 108.54 19.3162 108.997 19.0031C109.686 18.5316 110.476 18.3481 111.565 18.4069C113.8 18.5278 115.157 19.6643 115.74 21.9043C115.896 22.5016 115.9 22.5658 115.9 24.0734C115.899 25.4367 115.883 25.7196 115.765 26.3834C115.121 30.0097 113.264 32.4201 110.705 32.9503C109.419 33.2168 107.79 33.0406 107.002 32.5499C106.466 32.2156 105.989 31.6194 105.756 30.9911C105.633 30.6621 105.603 30.6705 105.547 31.0498C105.53 31.1626 105.37 32.02 105.191 32.9551C105.012 33.8901 104.733 35.3543 104.572 36.2088C104.41 37.0632 104.265 37.8163 104.25 37.8822C104.222 38 104.189 38.002 102.318 37.9995C101.271 37.998 100.198 37.9892 99.9336 37.9798Z" fill="#677489"/>
</svg>
