<svg width="281" height="64" viewBox="0 0 281 64" fill="none" xmlns="http://www.w3.org/2000/svg">
<path d="M113.458 34.2448C114.007 34.2448 114.509 34.2481 115.012 34.2432C115.239 34.2407 115.264 34.2059 115.232 33.9773C115.135 33.2577 115.044 32.5373 114.935 31.8201C114.901 31.5949 114.908 31.3597 114.786 31.0789C114.33 32.1497 113.903 33.1716 113.458 34.2448ZM120.411 39.0355C120.307 39.0023 120.199 39.0164 120.092 39.0164C118.808 39.0156 117.524 39.0164 116.239 39.0156C115.957 39.0156 115.941 38.9974 115.898 38.7324C115.808 38.1767 115.721 37.621 115.625 37.067C115.57 36.7466 115.565 36.7457 115.223 36.7449C114.403 36.7432 113.583 36.7441 112.763 36.7432C112.431 36.7424 112.394 36.7664 112.262 37.0811C112.03 37.6376 111.792 38.1916 111.566 38.7498C111.487 38.9477 111.373 39.023 111.146 39.0214C109.021 39.0123 106.897 39.0164 104.773 39.0156C104.723 39.0156 104.674 39.0181 104.625 39.0156C104.428 39.0057 104.387 38.975 104.356 38.7796C104.325 38.5783 104.308 38.3755 104.283 38.1726C104.192 37.4314 104.103 36.6902 104.009 35.9491C103.885 34.9587 103.757 33.9674 103.63 32.977C103.542 32.2938 103.457 31.6106 103.362 30.9282C103.317 30.6053 103.292 30.592 102.969 30.5904C102.436 30.5895 101.902 30.5904 101.369 30.5904C101.038 30.5904 101.009 30.6119 100.927 30.9315C100.267 33.507 99.6072 36.0816 98.948 38.657C98.8578 39.0073 98.8494 39.0156 98.4953 39.0156C95.6695 39.0164 92.8437 39.0156 90.018 39.0156C89.959 39.0156 89.8991 39.0156 89.8401 39.0123C89.7339 39.0073 89.674 38.9585 89.6884 38.8458C89.6959 38.7887 89.701 38.7299 89.7136 38.6736C90.1335 36.8194 90.5541 34.9653 90.9739 33.1111C91.1409 32.3733 91.3061 31.6354 91.468 30.8959C91.5286 30.6177 91.5067 30.5953 91.2201 30.5904C91.1712 30.5895 91.1215 30.5904 91.0717 30.5904C90.163 30.5895 89.2542 30.5895 88.3454 30.5879C88.0032 30.587 87.9442 30.6235 87.8186 30.9382C87.3178 32.1928 86.8171 33.4482 86.318 34.7036C85.7903 36.0302 85.2634 37.3585 84.734 38.6852C84.6109 38.9941 84.5629 39.0197 84.229 39.0189C83.4189 39.0164 82.6088 39.0173 81.7986 39.0156C81.4884 39.0148 81.4462 38.9734 81.4092 38.6703C81.3434 38.1312 81.2793 37.5921 81.2085 37.0538C80.9944 35.4481 80.7811 33.8432 80.5577 32.2391C80.5265 32.0114 80.5358 31.7704 80.4397 31.5352C80.3309 31.623 80.3115 31.7224 80.2728 31.8093C79.6995 33.0971 79.128 34.3864 78.5564 35.675C78.1113 36.6795 77.6645 37.684 77.2236 38.6901C77.1393 38.8831 77.0348 39.0222 76.7945 39.0206C76.024 39.0148 75.2535 39.0189 74.4821 39.0148C74.2082 39.0139 74.1879 39.0015 74.1449 38.7224C74.0851 38.339 74.0412 37.9531 73.9949 37.568C73.8676 36.5188 73.7496 35.4679 73.6155 34.4196C73.4537 33.1592 73.2741 31.9013 73.1106 30.6417C72.9462 29.3821 72.7927 28.1209 72.6334 26.8597C72.6022 26.6137 72.5972 26.6079 72.3392 26.6055C71.9438 26.6021 71.5485 26.6055 71.1531 26.6046C70.6726 26.6038 70.6751 26.6038 70.4938 27.051C69.6036 29.2505 69.4241 31.5311 69.7073 33.8589C69.983 36.1255 70.853 38.1626 72.2321 39.9911C73.4537 41.6101 74.9812 42.9028 76.6959 43.9926C78.9543 45.4285 81.421 46.3999 83.998 47.1187C87.467 48.0851 91.0203 48.4901 94.6107 48.6209C96.3886 48.6855 98.1648 48.6118 99.9394 48.4776C101.437 48.3642 102.926 48.2002 104.405 47.941C106.704 47.5377 108.952 46.9539 111.126 46.1117C113.344 45.2521 115.42 44.1449 117.262 42.6419C118.431 41.6879 119.462 40.6081 120.298 39.3559C120.36 39.2615 120.454 39.1762 120.411 39.0355ZM84.0031 31.9186C84.0992 31.8234 84.1211 31.7265 84.1574 31.6387C85.1167 29.3117 86.0752 26.9839 87.0337 24.6561C87.1863 24.2867 87.2065 24.2727 87.6264 24.2751C88.1499 24.2776 88.6734 24.2809 89.1969 24.2818C89.5425 24.2826 89.889 24.2776 90.2346 24.2818C90.426 24.2843 90.4445 24.3157 90.3881 24.4871C90.3695 24.5426 90.3451 24.5956 90.3231 24.6503C89.9244 25.6523 89.5257 26.6543 89.1269 27.6563C88.9903 28.0008 88.9903 28.0017 89.3579 28.0017C91.2159 28.0017 93.073 28.0008 94.9302 28.0033C95.3332 28.0033 95.3458 27.9288 95.2446 28.4016C94.706 30.9249 94.1639 33.4465 93.6235 35.9698C93.5713 36.2166 93.5274 36.4642 93.4802 36.7118C93.4541 36.8492 93.5182 36.9138 93.6547 36.9171C93.7036 36.9188 93.7534 36.9188 93.8022 36.9188C94.5239 36.9188 95.2446 36.9196 95.9663 36.9188C96.2807 36.9188 96.311 36.8956 96.3869 36.5917C97.063 33.8705 97.7383 31.1502 98.4135 28.429C98.7313 27.1487 99.0466 25.8676 99.3636 24.5865C99.4369 24.2934 99.4648 24.2735 99.764 24.2768C99.9512 24.2793 100.139 24.2818 100.327 24.2818C100.959 24.2826 101.592 24.2818 102.224 24.2826C102.537 24.2834 102.561 24.3141 102.494 24.623C102.452 24.8118 102.404 25.0006 102.36 25.1894C102.172 26.0117 101.982 26.834 101.799 27.658C101.732 27.9553 101.757 27.9801 102.056 27.9834C102.411 27.9868 102.767 27.9627 103.122 27.9975C103.298 28.0157 103.451 27.9412 103.569 27.8087C103.633 27.7358 103.688 27.6547 103.744 27.5752C104.439 26.5848 105.139 25.5976 105.825 24.6014C105.987 24.3662 106.178 24.2586 106.465 24.2718C106.83 24.2876 107.196 24.2818 107.561 24.2818C108.055 24.2826 108.549 24.2785 109.043 24.2793C109.285 24.2793 109.309 24.3199 109.186 24.5286C109.083 24.7049 108.971 24.8772 108.863 25.0511C108.144 26.2105 107.428 27.3723 106.703 28.5283C106.551 28.7702 106.448 29.0078 106.529 29.296C106.549 29.3697 106.546 29.45 106.556 29.5271C106.726 30.8148 106.898 32.1033 107.065 33.3919C107.206 34.4784 107.342 35.5657 107.482 36.653C107.51 36.8782 107.553 36.9171 107.783 36.9196C108.138 36.9229 108.494 36.9213 108.849 36.9188C109.295 36.9155 109.244 36.9817 109.421 36.537C110.637 33.4863 111.85 30.4338 113.065 27.3822C113.438 26.4432 113.812 25.5049 114.187 24.5658C114.3 24.2851 114.303 24.2834 114.592 24.2826C115.501 24.2818 116.41 24.2809 117.319 24.2834C117.589 24.2834 117.596 24.2925 117.63 24.5567C117.767 25.6142 117.901 26.6725 118.04 27.73C118.184 28.8265 118.332 29.9221 118.475 31.0177C118.627 32.1721 118.776 33.3256 118.926 34.48C119.011 35.1334 119.093 35.7876 119.181 36.4418C119.216 36.7018 119.227 36.7093 119.498 36.7101C120.14 36.7126 120.782 36.7068 121.423 36.7134C121.599 36.7159 121.706 36.6563 121.752 36.4907C121.773 36.4161 121.802 36.3433 121.826 36.2696C122.488 34.2705 122.641 32.23 122.379 30.149C122.094 27.8725 121.244 25.8237 119.853 23.9878C118.556 22.2753 116.937 20.9113 115.095 19.795C112.628 18.2986 109.953 17.2991 107.151 16.6051C105.408 16.1729 103.643 15.8598 101.856 15.6603C100.628 15.5236 99.3998 15.4135 98.1648 15.382C97.4348 15.363 96.703 15.3704 95.9722 15.3655C93.6084 15.3497 91.2564 15.4888 88.917 15.8383C87.1981 16.095 85.4977 16.4321 83.8261 16.9033C81.2692 17.6237 78.8363 18.6216 76.5956 20.046C74.9652 21.0828 73.5236 22.3241 72.3426 23.8462C72.2701 23.9389 72.1959 24.0292 72.131 24.1269C72.0762 24.2097 72.0855 24.276 72.2068 24.2801C72.276 24.2826 72.3451 24.2826 72.4142 24.2826C73.3432 24.2826 74.2714 24.2818 75.2004 24.2826C75.5308 24.2826 75.5401 24.2925 75.5865 24.618C75.589 24.637 75.589 24.6569 75.5924 24.676C75.7576 25.779 75.9254 26.8812 76.0889 27.9843C76.2634 29.1544 76.4337 30.3245 76.609 31.4947C76.6276 31.6197 76.6276 31.7572 76.7363 31.8532C76.8265 31.7977 76.8451 31.7182 76.8754 31.6487C77.4959 30.2119 78.1155 28.7743 78.7343 27.3367C79.1305 26.4167 79.5275 25.4974 79.917 24.5749C80.003 24.3704 80.1295 24.2694 80.363 24.2727C81.0542 24.2826 81.7455 24.2776 82.4368 24.2834C82.6509 24.2851 82.6728 24.3033 82.7091 24.5078C82.7782 24.8987 82.8372 25.2921 82.903 25.6846C83.2174 27.5586 83.5302 29.4335 83.8497 31.3075C83.8825 31.5029 83.8724 31.7124 84.0031 31.9186ZM96.0185 12C97.584 12.0033 98.9278 12.0008 100.27 12.0737C101.432 12.1375 102.594 12.2269 103.754 12.3354C104.904 12.4422 106.051 12.5706 107.196 12.7205C108.516 12.8919 109.83 13.1055 111.139 13.3531C113.922 13.8798 116.666 14.5605 119.355 15.4474C120.861 15.9443 122.342 16.5083 123.803 17.1227C124.103 17.2486 124.277 17.4391 124.355 17.7488C124.798 19.4994 125.182 21.2608 125.456 23.0454C125.689 24.5708 125.854 26.1036 125.965 27.6414C126.126 29.8989 126.16 32.1588 126.08 34.4196C126.026 35.9416 125.91 37.4604 125.731 38.9734C125.454 41.3351 125.016 43.6688 124.412 45.9726C124.231 46.6641 124.233 46.6641 123.551 46.9539C120.28 48.3435 116.89 49.3662 113.421 50.1496C111.409 50.6034 109.38 50.9595 107.338 51.2402C106.213 51.3951 105.083 51.5052 103.954 51.6154C101.78 51.8265 99.6022 51.9251 97.4196 51.9797C95.345 52.0311 93.2737 51.983 91.2024 51.8563C90.0686 51.7876 88.9364 51.7073 87.8068 51.5938C86.0988 51.4224 84.3968 51.2021 82.7015 50.9247C80.4523 50.557 78.2234 50.0958 76.0223 49.507C73.3719 48.7981 70.7813 47.9187 68.2616 46.8405C67.98 46.7204 67.8342 46.549 67.7591 46.2558C67.3182 44.535 66.9296 42.8034 66.6607 41.0486C66.5005 40.0035 66.3749 38.9535 66.2737 37.901C66.1372 36.4716 66.0242 35.0398 66.0132 33.6039C65.9972 31.6346 65.9686 29.6645 66.1195 27.6986C66.3774 24.3273 66.8697 20.9942 67.76 17.7231C67.8417 17.4225 68.0019 17.2403 68.2911 17.1169C71.4237 15.7845 74.6592 14.7626 77.9781 13.9842C79.9752 13.5163 81.99 13.1345 84.02 12.8372C85.201 12.6641 86.388 12.5308 87.5758 12.4058C89.3731 12.2145 91.1771 12.1267 92.982 12.0464C94.0686 11.9975 95.1544 12.0083 96.0185 12Z" fill="#677489"/>
<path d="M94.7179 24.2821C95.1217 24.2821 95.5264 24.2788 95.9302 24.2838C96.1553 24.2862 96.1687 24.3053 96.1232 24.5206C95.9968 25.1268 95.8678 25.7321 95.7363 26.3375C95.6882 26.5586 95.6326 26.6041 95.3881 26.605C94.61 26.6075 93.8311 26.6083 93.053 26.605C92.7866 26.6033 92.7647 26.571 92.8203 26.3135C92.9476 25.7272 93.0749 25.1417 93.2064 24.5562C93.2654 24.2937 93.2797 24.2846 93.5647 24.2829C93.9491 24.2804 94.3335 24.2821 94.7179 24.2821Z" fill="#677489"/>
<path d="M130.877 17.5127H134.262V28.25H130.877V17.5127Z" fill="#677489"/>
<path d="M137.173 17.5127H140.327L144.443 23.4526V17.5127H147.626V28.25H144.443L140.349 22.354V28.25H137.173V17.5127Z" fill="#677489"/>
<path d="M150.373 17.5127H155.391C156.38 17.5127 157.178 17.6445 157.785 17.9082C158.396 18.1719 158.9 18.5503 159.298 19.0434C159.696 19.5366 159.984 20.1103 160.163 20.7646C160.342 21.4189 160.431 22.1123 160.431 22.8447C160.431 23.9922 160.297 24.8833 160.029 25.518C159.765 26.1479 159.397 26.6777 158.925 27.1074C158.453 27.5322 157.946 27.8154 157.404 27.957C156.664 28.1523 155.993 28.25 155.391 28.25H150.373V17.5127ZM153.751 19.9443V25.811H154.578C155.284 25.811 155.786 25.7353 156.085 25.584C156.383 25.4277 156.616 25.1592 156.785 24.7783C156.954 24.3926 157.039 23.77 157.039 22.9106C157.039 21.7729 156.85 20.9941 156.472 20.5742C156.095 20.1543 155.468 19.9443 154.593 19.9443H153.751Z" fill="#677489"/>
<path d="M169.784 17.5127H173.155V23.914C173.155 24.5488 173.053 25.1494 172.849 25.7158C172.65 26.2773 172.334 26.7705 171.902 27.1953C171.474 27.6152 171.025 27.9106 170.552 28.0815C169.896 28.3208 169.108 28.4404 168.189 28.4404C167.657 28.4404 167.075 28.4038 166.444 28.3305C165.818 28.2573 165.293 28.1133 164.871 27.8984C164.448 27.6787 164.061 27.3686 163.708 26.9682C163.36 26.5679 163.121 26.1553 162.992 25.7305C162.783 25.0469 162.679 24.4414 162.679 23.914V17.5127H166.049V24.0679C166.049 24.6538 166.213 25.1128 166.541 25.4448C166.874 25.772 167.334 25.9355 167.92 25.9355C168.502 25.9355 168.957 25.7744 169.285 25.4521C169.618 25.125 169.784 24.6636 169.784 24.0679V17.5127Z" fill="#677489"/>
<path d="M175.26 24.6977L178.474 24.5C178.544 25.0127 178.685 25.4033 178.899 25.6719C179.247 26.1064 179.744 26.3237 180.39 26.3237C180.872 26.3237 181.243 26.2138 181.501 25.9941C181.764 25.7695 181.896 25.5107 181.896 25.2178C181.896 24.9394 181.772 24.6904 181.523 24.4707C181.275 24.251 180.698 24.0434 179.794 23.8481C178.312 23.521 177.256 23.0864 176.625 22.5444C175.989 22.0024 175.67 21.3115 175.67 20.4717C175.67 19.9199 175.832 19.3999 176.155 18.9116C176.483 18.4184 176.973 18.0327 177.624 17.7544C178.28 17.4712 179.177 17.3296 180.316 17.3296C181.712 17.3296 182.776 17.5859 183.507 18.0986C184.242 18.6064 184.68 19.417 184.819 20.5303L181.635 20.7134C181.551 20.23 181.372 19.8784 181.098 19.6587C180.83 19.4389 180.457 19.3291 179.98 19.3291C179.587 19.3291 179.292 19.4121 179.093 19.5781C178.894 19.7392 178.795 19.937 178.795 20.1714C178.795 20.3423 178.877 20.4961 179.041 20.6328C179.2 20.7744 179.577 20.9062 180.174 21.0283C181.65 21.3408 182.706 21.6582 183.343 21.9804C183.984 22.2978 184.449 22.6933 184.737 23.167C185.03 23.6406 185.177 24.1704 185.177 24.7563C185.177 25.4448 184.983 26.0796 184.595 26.6606C184.208 27.2417 183.666 27.6836 182.97 27.9863C182.274 28.2842 181.397 28.4331 180.338 28.4331C178.479 28.4331 177.191 28.0815 176.476 27.3784C175.76 26.6753 175.355 25.7817 175.26 24.6977Z" fill="#677489"/>
<path d="M186.574 17.5127H196.841V20.164H193.397V28.25H190.019V20.164H186.574V17.5127Z" fill="#677489"/>
<path d="M198.88 28.25V17.5127H204.509C205.553 17.5127 206.351 17.6006 206.903 17.7763C207.454 17.9521 207.899 18.2793 208.237 18.7578C208.575 19.2314 208.744 19.81 208.744 20.4936C208.744 21.0893 208.615 21.6045 208.357 22.039C208.098 22.4687 207.743 22.8179 207.29 23.0864C207.002 23.2573 206.607 23.3989 206.105 23.5112C206.507 23.643 206.801 23.7749 206.985 23.9067C207.109 23.9946 207.288 24.1826 207.521 24.4707C207.76 24.7588 207.919 24.9809 207.999 25.1372L209.632 28.25H205.814L204.01 24.9687C203.781 24.5439 203.577 24.268 203.398 24.1411C203.155 23.9751 202.879 23.8921 202.571 23.8921H202.272V28.25H198.88ZM202.272 21.8633H203.697C203.851 21.8633 204.149 21.8144 204.591 21.7168C204.815 21.6728 204.996 21.5605 205.136 21.3799C205.28 21.1992 205.352 20.9917 205.352 20.7573C205.352 20.4106 205.24 20.1445 205.016 19.959C204.793 19.7734 204.373 19.6806 203.756 19.6806H202.272V21.8633Z" fill="#677489"/>
<path d="M211.312 17.5127H214.697V28.25H211.312V17.5127Z" fill="#677489"/>
<path d="M131.105 32.6836H143.174V35.7402H135.619V38.0156H142.627V40.9355H135.619V43.7578H143.393V47H131.105V32.6836Z" fill="#677489"/>
<path d="M145.858 32.6836H150.064L155.551 40.6035V32.6836H159.796V47H155.551L150.093 39.1387V47H145.858V32.6836Z" fill="#677489"/>
<path d="M162.778 32.6836H174.847V35.7402H167.292V38.0156H174.3V40.9355H167.292V43.7578H175.066V47H162.778V32.6836Z" fill="#677489"/>
<path d="M177.561 47V32.6836H185.067C186.459 32.6836 187.522 32.8008 188.258 33.0351C188.994 33.2695 189.587 33.7057 190.037 34.3437C190.488 34.9752 190.713 35.7467 190.713 36.6582C190.713 37.4525 190.541 38.1393 190.196 38.7187C189.852 39.2917 189.378 39.7571 188.775 40.1152C188.39 40.3431 187.864 40.5319 187.194 40.6816C187.731 40.8574 188.122 41.0332 188.367 41.209C188.533 41.3262 188.772 41.5768 189.083 41.9609C189.401 42.345 189.613 42.6413 189.719 42.8496L191.896 47H186.807L184.401 42.625C184.096 42.0586 183.824 41.6907 183.586 41.5215C183.261 41.3001 182.893 41.1894 182.482 41.1894H182.084V47H177.561ZM182.084 38.4844H183.983C184.189 38.4844 184.586 38.4193 185.176 38.289C185.474 38.2305 185.716 38.0807 185.902 37.8398C186.094 37.5989 186.19 37.3223 186.19 37.0098C186.19 36.5475 186.041 36.1927 185.743 35.9453C185.445 35.6979 184.885 35.5742 184.063 35.5742H182.084V38.4844Z" fill="#677489"/>
<path d="M200.675 41.8144V38.8359H207.634V44.9394C206.301 45.8314 205.122 46.4401 204.094 46.7656C203.074 47.0846 201.861 47.2441 200.456 47.2441C198.726 47.2441 197.314 46.9544 196.221 46.375C195.134 45.7956 194.289 44.9329 193.686 43.7871C193.089 42.6413 192.791 41.3262 192.791 39.8418C192.791 38.2793 193.119 36.9219 193.775 35.7695C194.431 34.6107 195.392 33.7318 196.658 33.1328C197.646 32.6706 198.975 32.4394 200.645 32.4394C202.255 32.4394 203.458 32.5827 204.253 32.8691C205.055 33.1556 205.718 33.6015 206.242 34.207C206.772 34.806 207.17 35.5677 207.435 36.4922L203.09 37.2539C202.911 36.7135 202.607 36.3001 202.176 36.0137C201.752 35.7272 201.208 35.584 200.545 35.584C199.558 35.584 198.769 35.9225 198.179 36.5996C197.596 37.2702 197.305 38.3346 197.305 39.793C197.305 41.3424 197.599 42.4492 198.189 43.1133C198.786 43.7773 199.614 44.1094 200.675 44.1094C201.178 44.1094 201.659 44.0377 202.116 43.8945C202.573 43.7513 203.097 43.5071 203.687 43.1621V41.8144H200.675Z" fill="#677489"/>
<path d="M210.487 32.6836H215V47H210.487V32.6836Z" fill="#677489"/>
</svg>
